<svg xmlns="http://www.w3.org/2000/svg" width="16" height="16" version="1.1">
 <g transform="translate(-671.14288,-648.57648)">
  <g transform="matrix(0.1265625,0,0,-0.1265625,672.07092,663.09636)">
   <g transform="scale(0.1,0.1)">
    <g transform="translate(4150.9809,75.137737)">
     <circle style="fill:#d41919" cx="-3592.209" cy="-440.013" r="553.086" transform="scale(1,-1)"/>
     <path style="fill:#2f343f" d="m -3829.2457,683.22279 h 59.2593 c 0.6147,0.007 1.232,0.0273 1.8518,0 15.1082,-0.6637 30.2145,-7.61956 40.7407,-18.51852 l 135.1852,-135.18518 137.0371,135.18518 c 15.7407,13.65926 26.4694,18.1037 40.7407,18.51852 h 59.2593 v -59.25926 c 0,-16.976 -2.035,-32.63111 -14.8148,-44.44444 l -135.1852,-135.18519 133.3333,-133.33333 c 11.1519,-11.15082 16.6662,-26.87111 16.6667,-42.5926 v -59.25925 h -59.2593 c -15.7215,5.9e-4 -31.4421,5.51703 -42.5926,16.66666 l -135.1852,135.18519 -135.1851,-135.18519 c -11.1505,-11.152 -26.8718,-16.66666 -42.5926,-16.66666 h -59.2593 v 59.25925 c -2e-4,15.72089 5.5147,31.44178 16.6667,42.5926 l 135.1852,133.33333 -135.1852,135.18519 c -12.4884,11.53363 -17.9651,27.8074 -16.6667,44.44444 z"/>
    </g>
   </g>
  </g>
 </g>
</svg>
