<svg version="1.1" viewBox="0 0 700 910" xmlns="http://www.w3.org/2000/svg" xmlns:xlink="http://www.w3.org/1999/xlink">
  <defs>
    <linearGradient id="dark-normal">
      <stop stop-color="#2d303c" offset="0"/>
      <stop stop-color="#292c37" offset="1"/>
    </linearGradient>
    <linearGradient id="dark-hover" x1="95.213" x2="95.213" y1="171.21" y2="184.86" gradientTransform="matrix(3.0318 0 0 1.0053 -102.66 -.82153)" gradientUnits="userSpaceOnUse">
      <stop stop-color="#23252e" offset="0"/>
      <stop stop-color="#1a1c23" offset="1"/>
    </linearGradient>
    <linearGradient id="j" x1="95.213" x2="95.213" y1="161.96" y2="188.92" gradientTransform="matrix(3.0318 0 0 1.0053 -102.66 -.82153)" gradientUnits="userSpaceOnUse" xlink:href="#dark-normal"/>
    <linearGradient id="o" x1="98.388" x2="98.388" y1="17.217" y2="-11.144" gradientTransform="matrix(3.0318 0 0 1.0053 -102.66 -.82153)" gradientUnits="userSpaceOnUse" xlink:href="#dark-normal"/>
    <linearGradient id="n" x1="95.213" x2="95.213" y1="167.99" y2="191.11" gradientTransform="matrix(3.0318 0 0 1.0053 -102.66 -.82153)" gradientUnits="userSpaceOnUse" xlink:href="#dark-normal"/>
    <linearGradient id="m" x1="95.213" x2="95.213" y1="158.85" y2="188.92" gradientTransform="matrix(3.0318 0 0 1.0053 -102.66 -.82153)" gradientUnits="userSpaceOnUse" xlink:href="#dark-normal"/>
    <linearGradient id="l" x1="95.213" x2="95.213" y1="162.09" y2="188.92" gradientTransform="matrix(3.0318 0 0 1.0053 -102.66 -.82153)" gradientUnits="userSpaceOnUse" xlink:href="#dark-normal"/>
    <linearGradient id="k" x1="98.388" x2="98.388" y1="17.217" y2="-11.671" gradientTransform="matrix(3.0318 0 0 1.0053 -102.66 -.82153)" gradientUnits="userSpaceOnUse" xlink:href="#dark-normal"/>
  </defs>
  <path d="m0.0039062 440h435.87v470h-435.88z" color="#000000" fill="#23252e"/>
  <path d="m0.0039062 440h435.87v-440h-435.88z" color="#000000" fill="#fff"/>
  <path d="m426.88 440h273.12l-1.4e-4 470h-273.12z" color="#000000" fill="#2777ff" style="fill:#0d0d0d"/>
  <path d="m426.88 0h273.12v440h-273.12z" color="#000000" fill="#2777ff"/>
  <g id="slider-horz-scale-has-marks-below" transform="matrix(1.0003,0,0,1.0007,7.8222,264.63)">
    <path d="m201.72-9.3362c-3.71-3.7184-9.725-3.7184-13.435 0s-3.71 9.7472 0 13.466l6.7175 6.7328 6.7175-6.7328c3.71-3.7184 3.71-9.7472 0-13.466z" color="#000000" color-rendering="auto" fill="#fff" image-rendering="auto" shape-rendering="auto" solid-color="#000000" stroke="#c2c2c2" stroke-linejoin="round" style="fill:#fff;isolation:auto;mix-blend-mode:normal"/>
  </g>
  <g id="slider-horz-scale-has-marks-above" transform="matrix(1.0002 0 0 .99956 7.829 264.63)">
    <path d="m218.28 4.0831c3.71 3.7226 9.725 3.7226 13.435 0s3.71-9.758 0-13.481l-6.7175-6.7403-6.7175 6.7403c-3.71 3.7226-3.71 9.758 0 13.481z" color="#000000" color-rendering="auto" fill="#fff" image-rendering="auto" shape-rendering="auto" solid-color="#000000" stroke="#c2c2c2" stroke-linejoin="round" stroke-width="1.0006" style="fill:#fff;isolation:auto;mix-blend-mode:normal"/>
  </g>
  <g id="slider-vert-scale-has-marks-above" transform="matrix(1.0001,0,0,1.0003,7.843,264.63)">
    <path d="m261.71 4.0925c3.7205-3.71 3.7205-9.725 0-13.435s-9.7526-3.71-13.473-2e-7l-6.7366 6.7175 6.7366 6.7175c3.7205 3.71 9.7526 3.71 13.473 2e-7z" color="#000000" fill="#fff" stroke="#c2c2c2" stroke-linejoin="round" stroke-width="1.0003" style="fill:#fff"/>
  </g>
  <g id="slider-vert-scale-has-marks-below" transform="matrix(1.0001,0,0,1.0003,7.8348,264.63)">
    <path d="m278.29-9.3425c-3.7205 3.71-3.7205 9.725 0 13.435s9.7526 3.71 13.473 0l6.7366-6.7175-6.7366-6.7175c-3.7205-3.71-9.7526-3.71-13.473 0z" color="#000000" color-rendering="auto" fill="#fff" image-rendering="auto" shape-rendering="auto" solid-color="#000000" stroke="#c2c2c2" stroke-linejoin="round" stroke-width="1.0003" style="fill:#fff;isolation:auto;mix-blend-mode:normal"/>
  </g>
  <g id="slider-horz-scale-has-marks-below-dark" transform="matrix(1.0003,0,0,1.0007,7.8224,284.51)">
    <path d="m201.72 170.66c-3.71-3.7184-9.725-3.7184-13.435 0s-3.71 9.7472 0 13.466l6.7175 6.7328 6.7175-6.7328c3.71-3.7184 3.71-9.7472 0-13.466z" color="#000000" fill="url(#n)" stroke="#000" stroke-linejoin="round" style="fill:#323643"/>
  </g>
  <g id="slider-horz-scale-has-marks-above-dark" transform="matrix(1.0003 0 0 .9996 7.8169 284.7)">
    <path d="m218.28 184.08c3.71 3.7226 9.725 3.7226 13.435 0s3.71-9.758 0-13.481l-6.7175-6.7403-6.7175 6.7403c-3.71 3.7226-3.71 9.758 0 13.481z" color="#000000" fill="url(#m)" stroke="#000" stroke-linejoin="round" stroke-width="1.0005" style="fill:#323643"/>
  </g>
  <g id="slider-vert-scale-has-marks-above-dark" transform="matrix(1.0001,0,0,1.0003,7.8432,284.58)">
    <path d="m261.71 184.09c3.7205-3.71 3.7205-9.725 0-13.435s-9.7526-3.71-13.473 0l-6.7366 6.7175 6.7366 6.7175c3.7205 3.71 9.7526 3.71 13.473 0z" color="#000000" fill="url(#l)" stroke="#000" stroke-linejoin="round" stroke-width="1.0003" style="fill:#323643"/>
  </g>
  <g id="slider-vert-scale-has-marks-below-dark" transform="matrix(1.0001,0,0,1.0003,7.8349,284.58)">
    <path d="m278.29 170.66c-3.7205 3.71-3.7205 9.725 0 13.435s9.7526 3.71 13.473 0l6.7366-6.7175-6.7366-6.7175c-3.7205-3.71-9.7526-3.71-13.473 0z" color="#000000" fill="url(#j)" stroke="#000" stroke-linejoin="round" stroke-width="1.0003" style="fill:#323643"/>
  </g>
  <g id="slider-horz-scale-has-marks-below-hover" transform="matrix(.99998 0 0 1.0007 7.8804 294.63)">
    <g fill="#fff">
      <path d="m201.72-9.3362c-3.71-3.7184-9.725-3.7184-13.435 0s-3.71 9.7472 0 13.466l6.7175 6.7328 6.7175-6.7328c3.71-3.7184 3.71-9.7472 0-13.466z" color="#000000" stroke="#c2c2c2" stroke-linejoin="round" stroke-width="1.0001" style="fill:#fff;stroke:#2777ff"/>
    </g>
  </g>
  <g id="slider-horz-scale-has-marks-above-hover" transform="matrix(1 0 0 .99944 7.8771 294.63)">
    <path d="m218.28 4.0831c3.71 3.7226 9.725 3.7226 13.435 0s3.71-9.758 0-13.481l-6.7175-6.7403-6.7175 6.7403c-3.71 3.7226-3.71 9.758 0 13.481z" color="#000000" fill="#fff" stroke="#c2c2c2" stroke-linejoin="round" stroke-width="1.0007" style="fill:#fff;stroke:#2777ff"/>
  </g>
  <g id="slider-vert-scale-has-marks-above-hover" transform="matrix(.99998 0 0 1.0008 7.8813 294.63)">
    <g fill="#fff">
      <path d="m261.71 4.0925c3.7205-3.71 3.7205-9.725 0-13.435s-9.7526-3.71-13.473-2e-7l-6.7366 6.7175 6.7366 6.7175c3.7205 3.71 9.7526 3.71 13.473 2e-7z" color="#000000" stroke="#c2c2c2" stroke-linejoin="round" stroke-width="1.0001" style="fill:#fff;stroke:#2777ff"/>
    </g>
  </g>
  <g id="slider-vert-scale-has-marks-below-hover" transform="matrix(.99998 0 0 1.0008 7.8818 294.63)">
    <path d="m278.29-9.3425c-3.7205 3.71-3.7205 9.725 0 13.435s9.7526 3.71 13.473 0l6.7366-6.7175-6.7366-6.7175c-3.7205-3.71-9.7526-3.71-13.473 0z" color="#000000" fill="#fff" stroke="#c2c2c2" stroke-linejoin="round" stroke-width="1.0001" style="fill:#fff;stroke:#2777ff"/>
  </g>
  <g id="slider-horz-scale-has-marks-below-backdrop-insensitive" transform="matrix(1.0003,0,0,1.0007,7.8225,414.63)" fill="#faf9f8" stroke="#d1ccc8" stroke-linejoin="round" stroke-width=".99951">
    <path d="m201.72-8.3369c-3.71-3.7184-9.725-3.7184-13.435 0s-3.71 9.7472 0 13.466l6.7175 6.7328 6.7175-6.7328c3.71-3.7184 3.71-9.7472 0-13.466z" color="#000000" opacity="0"/>
    <path d="m201.72-9.3362c-3.71-3.7184-9.725-3.7184-13.435 0s-3.71 9.7472 0 13.466l6.7175 6.7328 6.7175-6.7328c3.71-3.7184 3.71-9.7472 0-13.466z" color="#000000" fill="#fff" stroke="#dadada" stroke-linejoin="round"/>
  </g>
  <g id="slider-horz-scale-has-marks-above-backdrop-insensitive" transform="matrix(1.0003 0 0 .9996 7.8169 414.63)">
    <path d="m218.28 5.0835c3.71 3.7226 9.725 3.7226 13.435 0s3.71-9.758 0-13.481l-6.7175-6.7403-6.7175 6.7403c-3.71 3.7226-3.71 9.758 0 13.481z" color="#000000" opacity="0" stroke-width="1.0003"/>
    <path d="m218.28 4.0831c3.71 3.7226 9.725 3.7226 13.435 0s3.71-9.758 0-13.481l-6.7175-6.7403-6.7175 6.7403c-3.71 3.7226-3.71 9.758 0 13.481z" color="#000000" fill="#fff" stroke="#dadada" stroke-linejoin="round" stroke-width="1.0001"/>
  </g>
  <g id="slider-vert-scale-has-marks-above-backdrop-insensitive" transform="matrix(1.0001,0,0,1.0003,7.8432,414.63)">
    <path d="m261.71 5.0922c3.7205-3.71 3.7205-9.725 0-13.435s-9.7526-3.71-13.473 0l-6.7366 6.7175 6.7366 6.7175c3.7205 3.71 9.7526 3.71 13.473 0z" color="#000000" opacity="0"/>
    <path d="m261.71 4.0925c3.7205-3.71 3.7205-9.725 0-13.435s-9.7526-3.71-13.473-2e-7l-6.7366 6.7175 6.7366 6.7175c3.7205 3.71 9.7526 3.71 13.473 2e-7z" color="#000000" fill="#fff" stroke="#dadada" stroke-linejoin="round" stroke-width=".99978"/>
  </g>
  <g id="slider-vert-scale-has-marks-below-backdrop-insensitive" transform="matrix(1.0001,0,0,1.0003,7.835,414.63)">
    <path d="m278.29-8.3428c-3.7205 3.71-3.7205 9.725 0 13.435s9.7526 3.71 13.473 0l6.7366-6.7175-6.7366-6.7175c-3.7205-3.71-9.7526-3.71-13.473 0z" color="#000000" opacity="0"/>
    <path d="m278.29-9.3425c-3.7205 3.71-3.7205 9.725 0 13.435s9.7526 3.71 13.473 0l6.7366-6.7175-6.7366-6.7175c-3.7205-3.71-9.7526-3.71-13.473 0z" color="#000000" fill="#fff" stroke="#dadada" stroke-linejoin="round" stroke-width=".99978"/>
  </g>
  <g id="slider-horz-scale-has-marks-below-hover-dark" transform="matrix(1.0003,0,0,1.0007,7.8225,314.51)">
    <path d="m201.72 170.66c-3.71-3.7184-9.725-3.7184-13.435 0s-3.71 9.7472 0 13.466l6.7175 6.7328 6.7175-6.7328c3.71-3.7184 3.71-9.7472 0-13.466z" color="#000000" fill="url(#dark-hover)" stroke="#000" stroke-linejoin="round" style="fill:#0f1014;stroke:#2777ff"/>
  </g>
  <g id="slider-horz-scale-has-marks-above-hover-dark" transform="matrix(1.0003 0 0 .9996 7.8169 314.7)">
    <path d="m218.28 184.08c3.71 3.7226 9.725 3.7226 13.435 0s3.71-9.758 0-13.481l-6.7175-6.7403-6.7175 6.7403c-3.71 3.7226-3.71 9.758 0 13.481z" color="#000000" fill="url(#dark-hover)" stroke="#000" stroke-linejoin="round" stroke-width="1.0005" style="fill:#0f1014;stroke:#2777ff"/>
  </g>
  <g id="slider-vert-scale-has-marks-above-hover-dark" transform="matrix(1.0001,0,0,1.0003,7.8432,314.58)">
    <path d="m261.71 184.09c3.7205-3.71 3.7205-9.725 0-13.435s-9.7526-3.71-13.473 0l-6.7366 6.7175 6.7366 6.7175c3.7205 3.71 9.7526 3.71 13.473 0z" color="#000000" fill="url(#dark-hover)" stroke="#000" stroke-linejoin="round" stroke-width="1.0003" style="fill:#0f1014;stroke:#2777ff"/>
  </g>
  <g id="slider-vert-scale-has-marks-below-hover-dark" transform="matrix(1.0001,0,0,1.0003,7.8349,314.58)">
    <path d="m278.29 170.66c-3.7205 3.71-3.7205 9.725 0 13.435s9.7526 3.71 13.473 0l6.7366-6.7175-6.7366-6.7175c-3.7205-3.71-9.7526-3.71-13.473 0z" color="#000000" fill="url(#dark-hover)" stroke="#000" stroke-linejoin="round" stroke-width="1.0003" style="fill:#0f1014;stroke:#2777ff"/>
  </g>
  <g id="slider-horz-scale-has-marks-below-backdrop" transform="matrix(1.0003,0,0,1.0007,7.8223,384.63)">
    <path d="m201.72-9.3362c-3.71-3.7184-9.725-3.7184-13.435 0s-3.71 9.7472 0 13.466l6.7175 6.7328 6.7175-6.7328c3.71-3.7184 3.71-9.7472 0-13.466z" color="#000000" fill="#fff" stroke="#dadada" stroke-linejoin="round" stroke-width=".99953"/>
    <path d="m201.72-8.3362c-3.71-3.7184-9.725-3.7184-13.435 0s-3.71 9.7472 0 13.466l6.7175 6.7328 6.7175-6.7328c3.71-3.7184 3.71-9.7472 0-13.466z" color="#000000" opacity="0"/>
  </g>
  <g id="slider-horz-scale-has-marks-above-backdrop" transform="matrix(1 0 0 .99958 7.8779 384.63)">
    <path d="m218.28 4.0858c3.711 3.7231 9.7276 3.7231 13.439 0 3.711-3.7231 3.711-9.7595 0-13.483l-6.7193-6.7413-6.7193 6.7413c-3.711 3.7231-3.711 9.7595 0 13.483z" color="#000000" fill="#fff" stroke="#dadada" stroke-linejoin="round" stroke-width="1.0002"/>
    <path d="m218.28 5.0836c3.71 3.7226 9.725 3.7226 13.435 0s3.71-9.758 0-13.481l-6.7175-6.7403-6.7175 6.7403c-3.71 3.7226-3.71 9.758 0 13.481z" color="#000000" opacity="0" stroke-width="1.0003"/>
  </g>
  <g id="slider-vert-scale-has-marks-above-backdrop" transform="matrix(1.0001,0,0,1,7.8416,384.63)">
    <path d="m261.71 5.0925c3.7205-3.71 3.7205-9.725 0-13.435s-9.7526-3.71-13.473 0l-6.7366 6.7175 6.7366 6.7175c3.7205 3.71 9.7526 3.71 13.473 0z" color="#000000" opacity="0"/>
    <path d="m261.71 4.0925c3.7205-3.71 3.7205-9.725 0-13.435s-9.7526-3.71-13.473-2e-7l-6.7366 6.7175 6.7366 6.7175c3.7205 3.71 9.7526 3.71 13.473 2e-7z" color="#000000" fill="#fff" stroke="#dadada" stroke-linejoin="round" stroke-width=".99993"/>
  </g>
  <g id="slider-vert-scale-has-marks-below-backdrop" transform="matrix(1.0001,0,0,1.0003,7.8332,384.63)">
    <path d="m278.29-8.3428c-3.7205 3.71-3.7205 9.725 0 13.435s9.7526 3.71 13.473 0l6.7366-6.7175-6.7366-6.7175c-3.7205-3.71-9.7526-3.71-13.473 0z" color="#000000" opacity="0"/>
    <path d="m278.29-9.3425c-3.7205 3.71-3.7205 9.725 0 13.435s9.7526 3.71 13.473 0l6.7366-6.7175-6.7366-6.7175c-3.7205-3.71-9.7526-3.71-13.473 0z" color="#000000" fill="#fff" stroke="#dadada" stroke-linejoin="round" stroke-width=".99978"/>
  </g>
  <g id="slider-horz-scale-has-marks-below-insensitive" transform="matrix(1.0003,0,0,1.0007,7.8224,354.63)">
    <path d="m201.72-8.3362c-3.71-3.7184-9.725-3.7184-13.435 0s-3.71 9.7472 0 13.466l6.7175 6.7328 6.7175-6.7328c3.71-3.7184 3.71-9.7472 0-13.466z" color="#000000" opacity="0"/>
    <path d="m201.72-9.3362c-3.71-3.7184-9.725-3.7184-13.435 0s-3.71 9.7472 0 13.466l6.7175 6.7328 6.7175-6.7328c3.71-3.7184 3.71-9.7472 0-13.466z" color="#000000" color-rendering="auto" fill="#fff" image-rendering="auto" shape-rendering="auto" solid-color="#000000" stroke="#dadada" stroke-linejoin="round" stroke-width=".99953" style="isolation:auto;mix-blend-mode:normal"/>
  </g>
  <g id="slider-horz-scale-has-marks-above-insensitive" transform="matrix(1.0003 0 0 .9996 7.8169 354.63)">
    <path d="m218.28 5.0836c3.71 3.7226 9.725 3.7226 13.435 0s3.71-9.758 0-13.481l-6.7175-6.7403-6.7175 6.7403c-3.71 3.7226-3.71 9.758 0 13.481z" color="#000000" opacity="0" stroke-width="1.0003"/>
    <path d="m218.28 4.0831c3.71 3.7226 9.725 3.7226 13.435 0s3.71-9.758 0-13.481l-6.7175-6.7403-6.7175 6.7403c-3.71 3.7226-3.71 9.758 0 13.481z" color="#000000" color-rendering="auto" fill="#fff" image-rendering="auto" shape-rendering="auto" solid-color="#000000" stroke="#dadada" stroke-linejoin="round" stroke-width="1.0001" style="isolation:auto;mix-blend-mode:normal"/>
  </g>
  <g id="slider-vert-scale-has-marks-above-insensitive" transform="matrix(1.0001,0,0,1.0003,7.8431,354.63)">
    <path d="m261.71 5.0925c3.7205-3.71 3.7205-9.725 0-13.435s-9.7526-3.71-13.473 0l-6.7366 6.7175 6.7366 6.7175c3.7205 3.71 9.7526 3.71 13.473 0z" color="#000000" opacity="0"/>
    <path d="m261.71 4.0925c3.7205-3.71 3.7205-9.725 0-13.435s-9.7526-3.71-13.473-2e-7l-6.7366 6.7175 6.7366 6.7175c3.7205 3.71 9.7526 3.71 13.473 2e-7z" color="#000000" color-rendering="auto" fill="#fff" image-rendering="auto" shape-rendering="auto" solid-color="#000000" stroke="#dadada" stroke-linejoin="round" stroke-width=".99979" style="isolation:auto;mix-blend-mode:normal"/>
  </g>
  <g id="slider-vert-scale-has-marks-below-insensitive" transform="matrix(1.0001,0,0,1.0003,7.8349,354.63)">
    <path d="m278.29-8.3425c-3.7205 3.71-3.7205 9.725 0 13.435s9.7526 3.71 13.473 0l6.7366-6.7175-6.7366-6.7175c-3.7205-3.71-9.7526-3.71-13.473 0z" color="#000000" opacity="0"/>
    <path d="m278.29-9.3425c-3.7205 3.71-3.7205 9.725 0 13.435s9.7526 3.71 13.473 0l6.7366-6.7175-6.7366-6.7175c-3.7205-3.71-9.7526-3.71-13.473 0z" color="#000000" color-rendering="auto" fill="#fff" image-rendering="auto" shape-rendering="auto" solid-color="#000000" stroke="#dadada" stroke-linejoin="round" stroke-width=".99979" style="isolation:auto;mix-blend-mode:normal"/>
  </g>
  <g id="slider-horz-scale-has-marks-below-backdrop-insensitive-dark" transform="matrix(1.0003,0,0,1.0007,7.8225,614.63)">
    <path d="m201.72-8.3368c-3.71-3.7184-9.725-3.7184-13.435 0s-3.71 9.7472 0 13.466l6.7175 6.7328 6.7175-6.7328c3.71-3.7184 3.71-9.7472 0-13.466z" color="#000000" opacity="0"/>
    <path d="m201.72-9.3362c-3.71-3.7184-9.725-3.7184-13.435 0s-3.71 9.7472 0 13.466l6.7175 6.7328 6.7175-6.7328c3.71-3.7184 3.71-9.7472 0-13.466z" color="#000000" color-rendering="auto" fill="#252730" image-rendering="auto" shape-rendering="auto" solid-color="#000000" stroke="#0d0e11" stroke-linejoin="round" style="isolation:auto;mix-blend-mode:normal"/>
  </g>
  <g id="slider-horz-scale-has-marks-above-backdrop-insensitive-dark" transform="matrix(1.0003 0 0 .9996 7.8169 614.63)">
    <path d="m218.28 5.0833c3.71 3.7226 9.725 3.7226 13.435 0s3.71-9.758 0-13.481l-6.7175-6.7403-6.7175 6.7403c-3.71 3.7226-3.71 9.758 0 13.481z" color="#000000" opacity="0" stroke-width="1.0003"/>
    <path d="m218.28 4.0831c3.71 3.7226 9.725 3.7226 13.435 0s3.71-9.758 0-13.481l-6.7175-6.7403-6.7175 6.7403c-3.71 3.7226-3.71 9.758 0 13.481z" color="#000000" color-rendering="auto" fill="#252730" image-rendering="auto" shape-rendering="auto" solid-color="#000000" stroke="#0d0e11" stroke-linejoin="round" stroke-width="1.0005" style="isolation:auto;mix-blend-mode:normal"/>
  </g>
  <g id="slider-vert-scale-has-marks-above-backdrop-insensitive-dark" transform="matrix(1.0001,0,0,1.0003,7.8432,614.63)">
    <path d="m261.71 5.0922c3.7205-3.71 3.7205-9.725 0-13.435s-9.7526-3.71-13.473 0l-6.7366 6.7175 6.7366 6.7175c3.7205 3.71 9.7526 3.71 13.473 0z" color="#000000" opacity="0"/>
    <path d="m261.71 4.0925c3.7205-3.71 3.7205-9.725 0-13.435s-9.7526-3.71-13.473-2e-7l-6.7366 6.7175 6.7366 6.7175c3.7205 3.71 9.7526 3.71 13.473 2e-7z" color="#000000" color-rendering="auto" fill="#252730" image-rendering="auto" shape-rendering="auto" solid-color="#000000" stroke="#0d0e11" stroke-linejoin="round" stroke-width="1.0003" style="isolation:auto;mix-blend-mode:normal"/>
  </g>
  <g id="slider-vert-scale-has-marks-below-backdrop-insensitive-dark" transform="matrix(1.0001,0,0,1.0003,7.835,614.63)">
    <path d="m278.29-8.3428c-3.7205 3.71-3.7205 9.725 0 13.435s9.7526 3.71 13.473 0l6.7366-6.7175-6.7366-6.7175c-3.7205-3.71-9.7526-3.71-13.473 0z" color="#000000" opacity="0"/>
    <path d="m278.29-9.3425c-3.7205 3.71-3.7205 9.725 0 13.435s9.7526 3.71 13.473 0l6.7366-6.7175-6.7366-6.7175c-3.7205-3.71-9.7526-3.71-13.473 0z" color="#000000" color-rendering="auto" fill="#252730" image-rendering="auto" shape-rendering="auto" solid-color="#000000" stroke="#0d0e11" stroke-linejoin="round" stroke-width="1.0003" style="isolation:auto;mix-blend-mode:normal"/>
  </g>
  <g id="slider-horz-scale-has-marks-below-backdrop-dark" transform="matrix(1.0003,0,0,1.0007,7.8224,584.63)">
    <path d="m201.72-8.3368c-3.71-3.7184-9.725-3.7184-13.435 0s-3.71 9.7472 0 13.466l6.7175 6.7328 6.7175-6.7328c3.71-3.7184 3.71-9.7472 0-13.466z" color="#000000" opacity="0"/>
    <path d="m201.72-9.3362c-3.71-3.7184-9.725-3.7184-13.435 0s-3.71 9.7472 0 13.466l6.7175 6.7328 6.7175-6.7328c3.71-3.7184 3.71-9.7472 0-13.466z" color="#000000" fill="#252730" stroke="#0d0e11" stroke-linejoin="round"/>
  </g>
  <g id="slider-horz-scale-has-marks-above-backdrop-dark" transform="matrix(1.0003 0 0 .9996 7.8169 584.63)">
    <path d="m218.28 5.0833c3.71 3.7226 9.725 3.7226 13.435 0s3.71-9.758 0-13.481l-6.7175-6.7403-6.7175 6.7403c-3.71 3.7226-3.71 9.758 0 13.481z" color="#000000" opacity="0" stroke-width="1.0003"/>
    <path d="m218.28 4.0831c3.71 3.7226 9.725 3.7226 13.435 0s3.71-9.758 0-13.481l-6.7175-6.7403-6.7175 6.7403c-3.71 3.7226-3.71 9.758 0 13.481z" color="#000000" fill="#252730" stroke="#0d0e11" stroke-linejoin="round" stroke-width="1.0005"/>
  </g>
  <g id="slider-vert-scale-has-marks-above-backdrop-dark" transform="matrix(1.0001,0,0,1.0003,7.8432,584.63)">
    <path d="m261.71 5.0922c3.7205-3.71 3.7205-9.725 0-13.435s-9.7526-3.71-13.473 0l-6.7366 6.7175 6.7366 6.7175c3.7205 3.71 9.7526 3.71 13.473 0z" color="#000000" opacity="0"/>
    <path d="m261.71 4.0925c3.7205-3.71 3.7205-9.725 0-13.435s-9.7526-3.71-13.473-2e-7l-6.7366 6.7175 6.7366 6.7175c3.7205 3.71 9.7526 3.71 13.473 2e-7z" color="#000000" fill="#252730" stroke="#0d0e11" stroke-linejoin="round" stroke-width="1.0003"/>
  </g>
  <g id="slider-vert-scale-has-marks-below-backdrop-dark" transform="matrix(1.0001,0,0,1.0003,7.835,584.63)">
    <path d="m278.29-8.3428c-3.7205 3.71-3.7205 9.725 0 13.435s9.7526 3.71 13.473 0l6.7366-6.7175-6.7366-6.7175c-3.7205-3.71-9.7526-3.71-13.473 0z" color="#000000" opacity="0"/>
    <path d="m278.29-9.3425c-3.7205 3.71-3.7205 9.725 0 13.435s9.7526 3.71 13.473 0l6.7366-6.7175-6.7366-6.7175c-3.7205-3.71-9.7526-3.71-13.473 0z" color="#000000" fill="#252730" stroke="#0d0e11" stroke-linejoin="round" stroke-width="1.0003"/>
  </g>
  <g id="slider-horz-scale-has-marks-below-insensitive-dark" transform="matrix(1.0003,0,0,1.0007,7.8225,554.63)">
    <path d="m201.72-8.3368c-3.71-3.7184-9.725-3.7184-13.435 0s-3.71 9.7472 0 13.466l6.7175 6.7328 6.7175-6.7328c3.71-3.7184 3.71-9.7472 0-13.466z" color="#000000" opacity="0"/>
    <path d="m201.72-9.3362c-3.71-3.7184-9.725-3.7184-13.435 0s-3.71 9.7472 0 13.466l6.7175 6.7328 6.7175-6.7328c3.71-3.7184 3.71-9.7472 0-13.466z" color="#000000" color-rendering="auto" fill="#252730" image-rendering="auto" shape-rendering="auto" solid-color="#000000" stroke="#0d0e11" stroke-linejoin="round" style="isolation:auto;mix-blend-mode:normal"/>
  </g>
  <g id="slider-horz-scale-has-marks-above-insensitive-dark" transform="matrix(1.0003 0 0 .9996 7.8169 554.63)">
    <path d="m218.28 5.0833c3.71 3.7226 9.725 3.7226 13.435 0s3.71-9.758 0-13.481l-6.7175-6.7403-6.7175 6.7403c-3.71 3.7226-3.71 9.758 0 13.481z" color="#000000" opacity="0" stroke-width="1.0003"/>
    <path d="m218.28 4.0831c3.71 3.7226 9.725 3.7226 13.435 0s3.71-9.758 0-13.481l-6.7175-6.7403-6.7175 6.7403c-3.71 3.7226-3.71 9.758 0 13.481z" color="#000000" color-rendering="auto" fill="#252730" image-rendering="auto" shape-rendering="auto" solid-color="#000000" stroke="#0d0e11" stroke-linejoin="round" stroke-width="1.0005" style="isolation:auto;mix-blend-mode:normal"/>
  </g>
  <g id="slider-vert-scale-has-marks-above-insensitive-dark" transform="matrix(1.0001,0,0,1.0003,7.8432,554.63)">
    <path d="m261.71 5.0922c3.7205-3.71 3.7205-9.725 0-13.435s-9.7526-3.71-13.473 0l-6.7366 6.7175 6.7366 6.7175c3.7205 3.71 9.7526 3.71 13.473 0z" color="#000000" opacity="0"/>
    <path d="m261.71 4.0925c3.7205-3.71 3.7205-9.725 0-13.435s-9.7526-3.71-13.473-2e-7l-6.7366 6.7175 6.7366 6.7175c3.7205 3.71 9.7526 3.71 13.473 2e-7z" color="#000000" color-rendering="auto" fill="#252730" image-rendering="auto" shape-rendering="auto" solid-color="#000000" stroke="#0d0e11" stroke-linejoin="round" stroke-width="1.0003" style="isolation:auto;mix-blend-mode:normal"/>
  </g>
  <g id="slider-vert-scale-has-marks-below-insensitive-dark" transform="matrix(1.0001,0,0,1.0003,7.835,554.63)">
    <path d="m278.29-8.3428c-3.7205 3.71-3.7205 9.725 0 13.435s9.7526 3.71 13.473 0l6.7366-6.7175-6.7366-6.7175c-3.7205-3.71-9.7526-3.71-13.473 0z" color="#000000" opacity="0"/>
    <path d="m278.29-9.3425c-3.7205 3.71-3.7205 9.725 0 13.435s9.7526 3.71 13.473 0l6.7366-6.7175-6.7366-6.7175c-3.7205-3.71-9.7526-3.71-13.473 0z" color="#000000" color-rendering="auto" fill="#252730" image-rendering="auto" shape-rendering="auto" solid-color="#000000" stroke="#0d0e11" stroke-linejoin="round" stroke-width="1.0003" style="isolation:auto;mix-blend-mode:normal"/>
  </g>
  <g id="slider-horz-scale-has-marks-below-active" transform="matrix(.99998 0 0 1.0007 7.8804 324.63)" stroke-linejoin="round">
    <path d="m201.72-9.3362c-3.71-3.7184-9.725-3.7184-13.435 0s-3.71 9.7472 0 13.466l6.7175 6.7328 6.7175-6.7328c3.71-3.7184 3.71-9.7472 0-13.466z" color="#000000" fill="#fff" stroke="#2777ff" stroke-width="1.0013"/>
  </g>
  <g id="slider-horz-scale-has-marks-above-active" transform="matrix(1 0 0 .99944 7.8771 324.63)">
    <path d="m218.28 4.0831c3.71 3.7226 9.725 3.7226 13.435 0s3.71-9.758 0-13.481l-6.7175-6.7403-6.7175 6.7403c-3.71 3.7226-3.71 9.758 0 13.481z" color="#000000" fill="#fff" stroke="#2777ff" stroke-linejoin="round" stroke-width="1.0003"/>
  </g>
  <g id="slider-vert-scale-has-marks-above-active" transform="matrix(.99998 0 0 1.0008 7.8813 324.63)" stroke-linejoin="round">
    <path d="m261.71 4.0925c3.7205-3.71 3.7205-9.725 0-13.435s-9.7526-3.71-13.473-2e-7l-6.7366 6.7175 6.7366 6.7175c3.7205 3.71 9.7526 3.71 13.473 2e-7z" color="#000000" fill="#fff" stroke="#2777ff"/>
  </g>
  <g id="slider-vert-scale-has-marks-below-active" transform="matrix(.99998 0 0 1.0008 7.8818 324.63)" stroke-linejoin="round">
    <path d="m278.29-9.3425c-3.7205 3.71-3.7205 9.725 0 13.435s9.7526 3.71 13.473 0l6.7366-6.7175-6.7366-6.7175c-3.7205-3.71-9.7526-3.71-13.473 0z" color="#000000" fill="#fff" stroke="#2777ff"/>
  </g>
  <g id="slider-horz-scale-has-marks-below-active-dark" transform="matrix(1.0003,0,0,1.0007,7.8225,344.51)">
    <path d="m201.72 170.66c-3.71-3.7184-9.725-3.7184-13.435 0s-3.71 9.7472 0 13.466l6.7175 6.7328 6.7175-6.7328c3.71-3.7184 3.71-9.7472 0-13.466z" color="#000000" fill="#0f1014" stroke="#2777ff" stroke-linejoin="round"/>
  </g>
  <g id="slider-horz-scale-has-marks-above-active-dark" transform="matrix(1.0003 0 0 .9996 7.8169 344.7)">
    <path d="m218.28 184.08c3.71 3.7226 9.725 3.7226 13.435 0s3.71-9.758 0-13.481l-6.7175-6.7403-6.7175 6.7403c-3.71 3.7226-3.71 9.758 0 13.481z" color="#000000" fill="#0f1014" stroke="#2777ff" stroke-linejoin="round" stroke-width="1.0003"/>
  </g>
  <g id="slider-vert-scale-has-marks-above-active-dark" transform="matrix(1.0001,0,0,1.0003,7.8432,344.58)">
    <path d="m261.71 184.09c3.7205-3.71 3.7205-9.725 0-13.435s-9.7526-3.71-13.473 0l-6.7366 6.7175 6.7366 6.7175c3.7205 3.71 9.7526 3.71 13.473 0z" color="#000000" fill="#0f1014" stroke="#2777ff" stroke-linejoin="round"/>
  </g>
  <g id="slider-vert-scale-has-marks-below-active-dark" transform="matrix(1.0001,0,0,1.0003,7.835,344.58)">
    <path d="m278.29 170.66c-3.7205 3.71-3.7205 9.725 0 13.435s9.7526 3.71 13.473 0l6.7366-6.7175-6.7366-6.7175c-3.7205-3.71-9.7526-3.71-13.473 0z" color="#000000" fill="#0f1014" stroke="#2777ff" stroke-linejoin="round"/>
  </g>
  <g id="text-select-end" transform="rotate(180,273.95,131.68)" shape-rendering="auto">
    <path d="m201.72-9.3362c-3.71-3.7184-9.725-3.7184-13.435 0s-4.2019 13.444 3.6239 16.029l12.624 4.1695-0.16117-6.7328c-0.1257-5.2512 1.0583-9.7472-2.6516-13.466z" color="#000000" color-rendering="auto" fill="#fff" image-rendering="auto" solid-color="#000000" stroke="#c2c2c2" stroke-linejoin="round" stroke-width="1.0005" style="fill:#fff;isolation:auto;mix-blend-mode:normal"/>
    <rect x="185" y="-12.638" width="20" height="24" color="#000000" color-rendering="auto" fill="none" image-rendering="auto" solid-color="#000000" style="isolation:auto;mix-blend-mode:normal;paint-order:normal"/>
  </g>
  <g id="text-select-end-active" transform="rotate(180,273.95,161.68)" shape-rendering="auto">
    <path d="m201.72-9.3362c-3.71-3.7184-9.725-3.7184-13.435 0s-4.2019 13.444 3.6239 16.029l12.624 4.1695-0.16117-6.7328c-0.1257-5.2512 1.0583-9.7472-2.6516-13.466z" color="#000000" color-rendering="auto" fill="#fff" image-rendering="auto" solid-color="#000000" stroke="#2777ff" stroke-linejoin="round" style="isolation:auto;mix-blend-mode:normal"/>
    <rect x="185" y="-12.638" width="20" height="24" color="#000000" color-rendering="auto" fill="none" image-rendering="auto" solid-color="#000000" style="isolation:auto;mix-blend-mode:normal;paint-order:normal"/>
  </g>
  <g id="text-select-end-hover" transform="rotate(180,273.95,146.68)" shape-rendering="auto">
    <path d="m201.72-9.3362c-3.71-3.7184-9.725-3.7184-13.435 0s-4.2019 13.444 3.6239 16.029l12.624 4.1695-0.16117-6.7328c-0.1257-5.2512 1.0583-9.7472-2.6516-13.466z" color="#000000" color-rendering="auto" fill="#fff" image-rendering="auto" solid-color="#000000" stroke="#c2c2c2" stroke-linejoin="round" style="fill:#fff;isolation:auto;mix-blend-mode:normal;stroke:#2777ff"/>
    <rect x="185" y="-12.638" width="20" height="24" color="#000000" color-rendering="auto" fill="none" image-rendering="auto" solid-color="#000000" style="isolation:auto;mix-blend-mode:normal;paint-order:normal"/>
  </g>
  <g id="text-select-end-dark" transform="rotate(180,273.95,231.68)" shape-rendering="auto">
    <path d="m201.72-9.3362c-3.71-3.7184-9.725-3.7184-13.435 0s-4.2019 13.444 3.6239 16.029l12.624 4.1695-0.16117-6.7328c-0.1257-5.2512 1.0583-9.7472-2.6516-13.466z" color="#000000" color-rendering="auto" fill="url(#o)" image-rendering="auto" solid-color="#000000" stroke="#000" stroke-linejoin="round" stroke-width="1.0005" style="fill:#323643;isolation:auto;mix-blend-mode:normal"/>
    <rect x="185" y="-12.638" width="20" height="24" color="#000000" color-rendering="auto" fill="none" image-rendering="auto" solid-color="#000000" style="isolation:auto;mix-blend-mode:normal;paint-order:normal"/>
  </g>
  <g id="text-select-end-active-dark" transform="rotate(180,273.95,261.68)" shape-rendering="auto">
    <path d="m201.72-9.3362c-3.71-3.7184-9.725-3.7184-13.435 0s-4.2019 13.444 3.6239 16.029l12.624 4.1695-0.16117-6.7328c-0.1257-5.2512 1.0583-9.7472-2.6516-13.466z" color="#000000" color-rendering="auto" fill="#0f1014" image-rendering="auto" solid-color="#000000" stroke="#2777ff" stroke-linejoin="round" style="isolation:auto;mix-blend-mode:normal"/>
    <rect x="185" y="-12.638" width="20" height="24" color="#000000" color-rendering="auto" fill="none" image-rendering="auto" solid-color="#000000" style="isolation:auto;mix-blend-mode:normal;paint-order:normal"/>
  </g>
  <g id="text-select-end-hover-dark" transform="rotate(180,273.95,246.68)" shape-rendering="auto">
    <path d="m201.72-9.3362c-3.71-3.7184-9.725-3.7184-13.435 0s-4.2019 13.444 3.6239 16.029l12.624 4.1695-0.16117-6.7328c-0.1257-5.2512 1.0583-9.7472-2.6516-13.466z" color="#000000" color-rendering="auto" fill="url(#dark-hover)" image-rendering="auto" solid-color="#000000" stroke="#080909" stroke-linejoin="round" stroke-width="1.0005" style="fill:#0f1014;isolation:auto;mix-blend-mode:normal;stroke:#2777ff"/>
    <rect x="185" y="-12.638" width="20" height="24" color="#000000" color-rendering="auto" fill="none" image-rendering="auto" solid-color="#000000" style="isolation:auto;mix-blend-mode:normal;paint-order:normal"/>
  </g>
  <g id="text-select-start" transform="matrix(1,0,0,-1,129.88,263.36)" shape-rendering="auto">
    <path d="m201.72-9.3362c-3.71-3.7184-9.725-3.7184-13.435 0s-4.2019 13.444 3.6239 16.029l12.624 4.1695-0.16117-6.7328c-0.1257-5.2512 1.0583-9.7472-2.6516-13.466z" color="#000000" color-rendering="auto" fill="#fff" image-rendering="auto" solid-color="#000000" stroke="#c2c2c2" stroke-linejoin="round" stroke-width="1.0005" style="fill:#fff;isolation:auto;mix-blend-mode:normal"/>
    <rect x="185" y="-12.638" width="20" height="24" color="#000000" color-rendering="auto" fill="none" image-rendering="auto" solid-color="#000000" style="isolation:auto;mix-blend-mode:normal;paint-order:normal"/>
  </g>
  <g id="text-select-start-active" transform="matrix(1,0,0,-1,129.88,323.36)" shape-rendering="auto">
    <path d="m201.72-9.3362c-3.71-3.7184-9.725-3.7184-13.435 0s-4.2019 13.444 3.6239 16.029l12.624 4.1695-0.16117-6.7328c-0.1257-5.2512 1.0583-9.7472-2.6516-13.466z" color="#000000" color-rendering="auto" fill="#fff" image-rendering="auto" solid-color="#000000" stroke="#2777ff" stroke-linejoin="round" style="isolation:auto;mix-blend-mode:normal"/>
    <rect x="185" y="-12.638" width="20" height="24" color="#000000" color-rendering="auto" fill="none" image-rendering="auto" solid-color="#000000" style="isolation:auto;mix-blend-mode:normal;paint-order:normal"/>
  </g>
  <g id="text-select-start-hover" transform="matrix(1,0,0,-1,129.88,293.36)" shape-rendering="auto">
    <path d="m201.72-9.3362c-3.71-3.7184-9.725-3.7184-13.435 0s-4.2019 13.444 3.6239 16.029l12.624 4.1695-0.16117-6.7328c-0.1257-5.2512 1.0583-9.7472-2.6516-13.466z" color="#000000" color-rendering="auto" fill="#fff" image-rendering="auto" solid-color="#000000" stroke="#c2c2c2" stroke-linejoin="round" style="fill:#fff;isolation:auto;mix-blend-mode:normal;stroke:#2777ff"/>
    <rect x="185" y="-12.638" width="20" height="24" color="#000000" color-rendering="auto" fill="none" image-rendering="auto" solid-color="#000000" style="isolation:auto;mix-blend-mode:normal;paint-order:normal"/>
  </g>
  <g id="text-select-start-dark" transform="matrix(1,0,0,-1,129.88,463.36)" shape-rendering="auto">
    <path d="m201.72-9.3362c-3.71-3.7184-9.725-3.7184-13.435 0s-4.2019 13.444 3.6239 16.029l12.624 4.1695-0.16117-6.7328c-0.1257-5.2512 1.0583-9.7472-2.6516-13.466z" color="#000000" color-rendering="auto" fill="url(#k)" image-rendering="auto" solid-color="#000000" stroke="#000" stroke-linejoin="round" stroke-width="1.0005" style="fill:#323643;isolation:auto;mix-blend-mode:normal"/>
    <rect x="185" y="-12.638" width="20" height="24" color="#000000" color-rendering="auto" fill="none" image-rendering="auto" solid-color="#000000" style="isolation:auto;mix-blend-mode:normal;paint-order:normal"/>
  </g>
  <g id="text-select-start-active-dark" transform="matrix(1,0,0,-1,129.88,523.36)" shape-rendering="auto">
    <path d="m201.72-9.3362c-3.71-3.7184-9.725-3.7184-13.435 0s-4.2019 13.444 3.6239 16.029l12.624 4.1695-0.16117-6.7328c-0.1257-5.2512 1.0583-9.7472-2.6516-13.466z" color="#000000" color-rendering="auto" fill="#0f1014" image-rendering="auto" solid-color="#000000" stroke="#2777ff" stroke-linejoin="round" style="isolation:auto;mix-blend-mode:normal"/>
    <rect x="185" y="-12.638" width="20" height="24" color="#000000" color-rendering="auto" fill="none" image-rendering="auto" solid-color="#000000" style="isolation:auto;mix-blend-mode:normal;paint-order:normal"/>
  </g>
  <g id="text-select-start-hover-dark" transform="matrix(1,0,0,-1,129.88,493.36)" shape-rendering="auto">
    <path d="m201.72-9.3362c-3.71-3.7184-9.725-3.7184-13.435 0s-4.2019 13.444 3.6239 16.029l12.624 4.1695-0.16117-6.7328c-0.1257-5.2512 1.0583-9.7472-2.6516-13.466z" color="#000000" color-rendering="auto" fill="url(#dark-hover)" image-rendering="auto" solid-color="#000000" stroke="#000" stroke-linejoin="round" stroke-width="1.0005" style="fill:#0f1014;isolation:auto;mix-blend-mode:normal;stroke:#2777ff"/>
    <rect x="185" y="-12.638" width="20" height="24" color="#000000" color-rendering="auto" fill="none" image-rendering="auto" solid-color="#000000" style="isolation:auto;mix-blend-mode:normal;paint-order:normal"/>
  </g>
  <g id="slider-horz-scale-has-marks-below-darkest" transform="matrix(1.0003 0 0 1.0007 287.82 284.51)">
    <path d="m201.72 170.66c-3.71-3.7184-9.725-3.7184-13.435 0s-3.71 9.7472 0 13.466l6.7175 6.7328 6.7175-6.7328c3.71-3.7184 3.71-9.7472 0-13.466z" color="#000000" fill="url(#n)" stroke="#000" stroke-linejoin="round" style="fill:#333;stroke:#000"/>
  </g>
  <g id="slider-horz-scale-has-marks-above-darkest" transform="matrix(1.0003 0 0 .9996 287.82 284.7)">
    <path d="m218.28 184.08c3.71 3.7226 9.725 3.7226 13.435 0s3.71-9.758 0-13.481l-6.7175-6.7403-6.7175 6.7403c-3.71 3.7226-3.71 9.758 0 13.481z" color="#000000" fill="url(#m)" stroke="#000" stroke-linejoin="round" stroke-width="1.0005" style="fill:#333;stroke:#000"/>
  </g>
  <g id="slider-vert-scale-has-marks-above-darkest" transform="matrix(1.0001 0 0 1.0003 287.84 284.58)">
    <path d="m261.71 184.09c3.7205-3.71 3.7205-9.725 0-13.435s-9.7526-3.71-13.473 0l-6.7366 6.7175 6.7366 6.7175c3.7205 3.71 9.7526 3.71 13.473 0z" color="#000000" fill="url(#l)" stroke="#000" stroke-linejoin="round" stroke-width="1.0003" style="fill:#333;stroke:#000"/>
  </g>
  <g id="slider-vert-scale-has-marks-below-darkest" transform="matrix(1.0001 0 0 1.0003 287.83 284.58)">
    <path d="m278.29 170.66c-3.7205 3.71-3.7205 9.725 0 13.435s9.7526 3.71 13.473 0l6.7366-6.7175-6.7366-6.7175c-3.7205-3.71-9.7526-3.71-13.473 0z" color="#000000" fill="url(#j)" stroke="#000" stroke-linejoin="round" stroke-width="1.0003" style="fill:#333;stroke:#000"/>
  </g>
  <g id="slider-horz-scale-has-marks-below-hover-darkest" transform="matrix(1.0003 0 0 1.0007 287.82 314.51)">
    <path d="m201.72 170.66c-3.71-3.7184-9.725-3.7184-13.435 0s-3.71 9.7472 0 13.466l6.7175 6.7328 6.7175-6.7328c3.71-3.7184 3.71-9.7472 0-13.466z" color="#000000" fill="url(#dark-hover)" stroke="#000" stroke-linejoin="round" style="fill:#000;stroke:#2777ff"/>
  </g>
  <g id="slider-horz-scale-has-marks-above-hover-darkest" transform="matrix(1.0003 0 0 .9996 287.82 314.7)">
    <path d="m218.28 184.08c3.71 3.7226 9.725 3.7226 13.435 0s3.71-9.758 0-13.481l-6.7175-6.7403-6.7175 6.7403c-3.71 3.7226-3.71 9.758 0 13.481z" color="#000000" fill="url(#dark-hover)" stroke="#000" stroke-linejoin="round" stroke-width="1.0005" style="fill:#000;stroke:#2777ff"/>
  </g>
  <g id="slider-vert-scale-has-marks-above-hover-darkest" transform="matrix(1.0001 0 0 1.0003 287.84 314.58)">
    <path d="m261.71 184.09c3.7205-3.71 3.7205-9.725 0-13.435s-9.7526-3.71-13.473 0l-6.7366 6.7175 6.7366 6.7175c3.7205 3.71 9.7526 3.71 13.473 0z" color="#000000" fill="url(#dark-hover)" stroke="#000" stroke-linejoin="round" stroke-width="1.0003" style="fill:#000;stroke:#2777ff"/>
  </g>
  <g id="slider-vert-scale-has-marks-below-hover-darkest" transform="matrix(1.0001 0 0 1.0003 287.83 314.58)">
    <path d="m278.29 170.66c-3.7205 3.71-3.7205 9.725 0 13.435s9.7526 3.71 13.473 0l6.7366-6.7175-6.7366-6.7175c-3.7205-3.71-9.7526-3.71-13.473 0z" color="#000000" fill="url(#dark-hover)" stroke="#000" stroke-linejoin="round" stroke-width="1.0003" style="fill:#000;stroke:#2777ff"/>
  </g>
  <g id="slider-horz-scale-has-marks-below-backdrop-insensitive-darkest" transform="matrix(1.0003 0 0 1.0007 287.82 614.63)">
    <path d="m201.72-8.3368c-3.71-3.7184-9.725-3.7184-13.435 0s-3.71 9.7472 0 13.466l6.7175 6.7328 6.7175-6.7328c3.71-3.7184 3.71-9.7472 0-13.466z" color="#000000" opacity="0"/>
    <path d="m201.72-9.3362c-3.71-3.7184-9.725-3.7184-13.435 0s-3.71 9.7472 0 13.466l6.7175 6.7328 6.7175-6.7328c3.71-3.7184 3.71-9.7472 0-13.466z" color="#000000" color-rendering="auto" fill="#252730" image-rendering="auto" shape-rendering="auto" solid-color="#000000" stroke="#0d0e11" stroke-linejoin="round" style="fill:#080808;isolation:auto;mix-blend-mode:normal;stroke:#1f1f1f"/>
  </g>
  <g id="slider-horz-scale-has-marks-above-backdrop-insensitive-darkest" transform="matrix(1.0003 0 0 .9996 287.82 614.63)">
    <path d="m218.28 5.0833c3.71 3.7226 9.725 3.7226 13.435 0s3.71-9.758 0-13.481l-6.7175-6.7403-6.7175 6.7403c-3.71 3.7226-3.71 9.758 0 13.481z" color="#000000" opacity="0" stroke-width="1.0003"/>
    <path d="m218.28 4.0831c3.71 3.7226 9.725 3.7226 13.435 0s3.71-9.758 0-13.481l-6.7175-6.7403-6.7175 6.7403c-3.71 3.7226-3.71 9.758 0 13.481z" color="#000000" color-rendering="auto" fill="#252730" image-rendering="auto" shape-rendering="auto" solid-color="#000000" stroke="#0d0e11" stroke-linejoin="round" stroke-width="1.0005" style="fill:#080808;isolation:auto;mix-blend-mode:normal;stroke:#1f1f1f"/>
  </g>
  <g id="slider-vert-scale-has-marks-above-backdrop-insensitive-darkest" transform="matrix(1.0001 0 0 1.0003 287.84 614.63)">
    <path d="m261.71 5.0922c3.7205-3.71 3.7205-9.725 0-13.435s-9.7526-3.71-13.473 0l-6.7366 6.7175 6.7366 6.7175c3.7205 3.71 9.7526 3.71 13.473 0z" color="#000000" opacity="0"/>
    <path d="m261.71 4.0925c3.7205-3.71 3.7205-9.725 0-13.435s-9.7526-3.71-13.473-2e-7l-6.7366 6.7175 6.7366 6.7175c3.7205 3.71 9.7526 3.71 13.473 2e-7z" color="#000000" color-rendering="auto" fill="#252730" image-rendering="auto" shape-rendering="auto" solid-color="#000000" stroke="#0d0e11" stroke-linejoin="round" stroke-width="1.0003" style="fill:#080808;isolation:auto;mix-blend-mode:normal;stroke:#1f1f1f"/>
  </g>
  <g id="slider-vert-scale-has-marks-below-backdrop-insensitive-darkest" transform="matrix(1.0001 0 0 1.0003 287.84 614.63)">
    <path d="m278.29-8.3428c-3.7205 3.71-3.7205 9.725 0 13.435s9.7526 3.71 13.473 0l6.7366-6.7175-6.7366-6.7175c-3.7205-3.71-9.7526-3.71-13.473 0z" color="#000000" opacity="0"/>
    <path d="m278.29-9.3425c-3.7205 3.71-3.7205 9.725 0 13.435s9.7526 3.71 13.473 0l6.7366-6.7175-6.7366-6.7175c-3.7205-3.71-9.7526-3.71-13.473 0z" color="#000000" color-rendering="auto" fill="#252730" image-rendering="auto" shape-rendering="auto" solid-color="#000000" stroke="#0d0e11" stroke-linejoin="round" stroke-width="1.0003" style="fill:#080808;isolation:auto;mix-blend-mode:normal;stroke:#1f1f1f"/>
  </g>
  <g id="slider-horz-scale-has-marks-below-backdrop-darkest" transform="matrix(1.0003 0 0 1.0007 287.82 584.63)">
    <path d="m201.72-8.3368c-3.71-3.7184-9.725-3.7184-13.435 0s-3.71 9.7472 0 13.466l6.7175 6.7328 6.7175-6.7328c3.71-3.7184 3.71-9.7472 0-13.466z" color="#000000" opacity="0"/>
    <path d="m201.72-9.3362c-3.71-3.7184-9.725-3.7184-13.435 0s-3.71 9.7472 0 13.466l6.7175 6.7328 6.7175-6.7328c3.71-3.7184 3.71-9.7472 0-13.466z" color="#000000" fill="#252730" stroke="#0d0e11" stroke-linejoin="round" style="fill:#080808;stroke:#1f1f1f"/>
  </g>
  <g id="slider-horz-scale-has-marks-above-backdrop-darkest" transform="matrix(1.0003 0 0 .9996 287.82 584.63)">
    <path d="m218.28 5.0833c3.71 3.7226 9.725 3.7226 13.435 0s3.71-9.758 0-13.481l-6.7175-6.7403-6.7175 6.7403c-3.71 3.7226-3.71 9.758 0 13.481z" color="#000000" opacity="0" stroke-width="1.0003"/>
    <path d="m218.28 4.0831c3.71 3.7226 9.725 3.7226 13.435 0s3.71-9.758 0-13.481l-6.7175-6.7403-6.7175 6.7403c-3.71 3.7226-3.71 9.758 0 13.481z" color="#000000" fill="#252730" stroke="#0d0e11" stroke-linejoin="round" stroke-width="1.0005" style="fill:#080808;stroke:#1f1f1f"/>
  </g>
  <g id="slider-vert-scale-has-marks-above-backdrop-darkest" transform="matrix(1.0001 0 0 1.0003 287.84 584.63)">
    <path d="m261.71 5.0922c3.7205-3.71 3.7205-9.725 0-13.435s-9.7526-3.71-13.473 0l-6.7366 6.7175 6.7366 6.7175c3.7205 3.71 9.7526 3.71 13.473 0z" color="#000000" opacity="0"/>
    <path d="m261.71 4.0925c3.7205-3.71 3.7205-9.725 0-13.435s-9.7526-3.71-13.473-2e-7l-6.7366 6.7175 6.7366 6.7175c3.7205 3.71 9.7526 3.71 13.473 2e-7z" color="#000000" fill="#252730" stroke="#0d0e11" stroke-linejoin="round" stroke-width="1.0003" style="fill:#080808;stroke:#1f1f1f"/>
  </g>
  <g id="slider-vert-scale-has-marks-below-backdrop-darkest" transform="matrix(1.0001 0 0 1.0003 287.84 584.63)">
    <path d="m278.29-8.3428c-3.7205 3.71-3.7205 9.725 0 13.435s9.7526 3.71 13.473 0l6.7366-6.7175-6.7366-6.7175c-3.7205-3.71-9.7526-3.71-13.473 0z" color="#000000" opacity="0"/>
    <path d="m278.29-9.3425c-3.7205 3.71-3.7205 9.725 0 13.435s9.7526 3.71 13.473 0l6.7366-6.7175-6.7366-6.7175c-3.7205-3.71-9.7526-3.71-13.473 0z" color="#000000" fill="#252730" stroke="#0d0e11" stroke-linejoin="round" stroke-width="1.0003" style="fill:#080808;stroke:#1f1f1f"/>
  </g>
  <g id="slider-horz-scale-has-marks-below-insensitive-darkest" transform="matrix(1.0003 0 0 1.0007 287.82 554.63)">
    <path d="m201.72-8.3368c-3.71-3.7184-9.725-3.7184-13.435 0s-3.71 9.7472 0 13.466l6.7175 6.7328 6.7175-6.7328c3.71-3.7184 3.71-9.7472 0-13.466z" color="#000000" opacity="0"/>
    <path d="m201.72-9.3362c-3.71-3.7184-9.725-3.7184-13.435 0s-3.71 9.7472 0 13.466l6.7175 6.7328 6.7175-6.7328c3.71-3.7184 3.71-9.7472 0-13.466z" color="#000000" color-rendering="auto" fill="#252730" image-rendering="auto" shape-rendering="auto" solid-color="#000000" stroke="#0d0e11" stroke-linejoin="round" style="fill:#080808;isolation:auto;mix-blend-mode:normal;stroke:#1f1f1f"/>
  </g>
  <g id="slider-horz-scale-has-marks-above-insensitive-darkest" transform="matrix(1.0003 0 0 .9996 287.82 554.63)">
    <path d="m218.28 5.0833c3.71 3.7226 9.725 3.7226 13.435 0s3.71-9.758 0-13.481l-6.7175-6.7403-6.7175 6.7403c-3.71 3.7226-3.71 9.758 0 13.481z" color="#000000" opacity="0" stroke-width="1.0003"/>
    <path d="m218.28 4.0831c3.71 3.7226 9.725 3.7226 13.435 0s3.71-9.758 0-13.481l-6.7175-6.7403-6.7175 6.7403c-3.71 3.7226-3.71 9.758 0 13.481z" color="#000000" color-rendering="auto" fill="#252730" image-rendering="auto" shape-rendering="auto" solid-color="#000000" stroke="#0d0e11" stroke-linejoin="round" stroke-width="1.0005" style="fill:#080808;isolation:auto;mix-blend-mode:normal;stroke:#1f1f1f"/>
  </g>
  <g id="slider-vert-scale-has-marks-above-insensitive-darkest" transform="matrix(1.0001 0 0 1.0003 287.84 554.63)">
    <path d="m261.71 5.0922c3.7205-3.71 3.7205-9.725 0-13.435s-9.7526-3.71-13.473 0l-6.7366 6.7175 6.7366 6.7175c3.7205 3.71 9.7526 3.71 13.473 0z" color="#000000" opacity="0"/>
    <path d="m261.71 4.0925c3.7205-3.71 3.7205-9.725 0-13.435s-9.7526-3.71-13.473-2e-7l-6.7366 6.7175 6.7366 6.7175c3.7205 3.71 9.7526 3.71 13.473 2e-7z" color="#000000" color-rendering="auto" fill="#252730" image-rendering="auto" shape-rendering="auto" solid-color="#000000" stroke="#0d0e11" stroke-linejoin="round" stroke-width="1.0003" style="fill:#080808;isolation:auto;mix-blend-mode:normal;stroke:#1f1f1f"/>
  </g>
  <g id="slider-vert-scale-has-marks-below-insensitive-darkest" transform="matrix(1.0001 0 0 1.0003 287.84 554.63)">
    <path d="m278.29-8.3428c-3.7205 3.71-3.7205 9.725 0 13.435s9.7526 3.71 13.473 0l6.7366-6.7175-6.7366-6.7175c-3.7205-3.71-9.7526-3.71-13.473 0z" color="#000000" opacity="0"/>
    <path d="m278.29-9.3425c-3.7205 3.71-3.7205 9.725 0 13.435s9.7526 3.71 13.473 0l6.7366-6.7175-6.7366-6.7175c-3.7205-3.71-9.7526-3.71-13.473 0z" color="#000000" color-rendering="auto" fill="#252730" image-rendering="auto" shape-rendering="auto" solid-color="#000000" stroke="#0d0e11" stroke-linejoin="round" stroke-width="1.0003" style="fill:#080808;isolation:auto;mix-blend-mode:normal;stroke:#1f1f1f"/>
  </g>
  <g id="slider-horz-scale-has-marks-below-active-darkest" transform="matrix(1.0003 0 0 1.0007 287.82 344.51)">
    <path d="m201.72 170.66c-3.71-3.7184-9.725-3.7184-13.435 0s-3.71 9.7472 0 13.466l6.7175 6.7328 6.7175-6.7328c3.71-3.7184 3.71-9.7472 0-13.466z" color="#000000" fill="#0f1014" stroke="#2777ff" stroke-linejoin="round" style="fill:#000"/>
  </g>
  <g id="slider-horz-scale-has-marks-above-active-darkest" transform="matrix(1.0003 0 0 .9996 287.82 344.7)">
    <path d="m218.28 184.08c3.71 3.7226 9.725 3.7226 13.435 0s3.71-9.758 0-13.481l-6.7175-6.7403-6.7175 6.7403c-3.71 3.7226-3.71 9.758 0 13.481z" color="#000000" fill="#0f1014" stroke="#2777ff" stroke-linejoin="round" stroke-width="1.0003" style="fill:#000"/>
  </g>
  <g id="slider-vert-scale-has-marks-above-active-darkest" transform="matrix(1.0001 0 0 1.0003 287.84 344.58)">
    <path d="m261.71 184.09c3.7205-3.71 3.7205-9.725 0-13.435s-9.7526-3.71-13.473 0l-6.7366 6.7175 6.7366 6.7175c3.7205 3.71 9.7526 3.71 13.473 0z" color="#000000" fill="#0f1014" stroke="#2777ff" stroke-linejoin="round" style="fill:#000"/>
  </g>
  <g id="slider-vert-scale-has-marks-below-active-darkest" transform="matrix(1.0001 0 0 1.0003 287.84 344.58)">
    <path d="m278.29 170.66c-3.7205 3.71-3.7205 9.725 0 13.435s9.7526 3.71 13.473 0l6.7366-6.7175-6.7366-6.7175c-3.7205-3.71-9.7526-3.71-13.473 0z" color="#000000" fill="#0f1014" stroke="#2777ff" stroke-linejoin="round" style="fill:#000"/>
  </g>
  <g id="text-select-end-darkest" transform="rotate(180,413.95,231.68)" shape-rendering="auto">
    <path d="m201.72-9.3362c-3.71-3.7184-9.725-3.7184-13.435 0s-4.2019 13.444 3.6239 16.029l12.624 4.1695-0.16117-6.7328c-0.1257-5.2512 1.0583-9.7472-2.6516-13.466z" color="#000000" color-rendering="auto" fill="url(#o)" image-rendering="auto" solid-color="#000000" stroke="#000" stroke-linejoin="round" stroke-width="1.0005" style="fill:#333;isolation:auto;mix-blend-mode:normal;stroke:#000"/>
    <rect x="185" y="-12.638" width="20" height="24" color="#000000" color-rendering="auto" fill="none" image-rendering="auto" solid-color="#000000" style="isolation:auto;mix-blend-mode:normal;paint-order:normal"/>
  </g>
  <g id="text-select-end-active-darkest" transform="rotate(180,413.95,261.68)" shape-rendering="auto">
    <path d="m201.72-9.3362c-3.71-3.7184-9.725-3.7184-13.435 0s-4.2019 13.444 3.6239 16.029l12.624 4.1695-0.16117-6.7328c-0.1257-5.2512 1.0583-9.7472-2.6516-13.466z" color="#000000" color-rendering="auto" fill="#0f1014" image-rendering="auto" solid-color="#000000" stroke="#2777ff" stroke-linejoin="round" style="fill:#000;isolation:auto;mix-blend-mode:normal"/>
    <rect x="185" y="-12.638" width="20" height="24" color="#000000" color-rendering="auto" fill="none" image-rendering="auto" solid-color="#000000" style="isolation:auto;mix-blend-mode:normal;paint-order:normal"/>
  </g>
  <g id="text-select-end-hover-darkest" transform="rotate(180,413.95,246.68)" shape-rendering="auto">
    <path d="m201.72-9.3362c-3.71-3.7184-9.725-3.7184-13.435 0s-4.2019 13.444 3.6239 16.029l12.624 4.1695-0.16117-6.7328c-0.1257-5.2512 1.0583-9.7472-2.6516-13.466z" color="#000000" color-rendering="auto" fill="url(#dark-hover)" image-rendering="auto" solid-color="#000000" stroke="#080909" stroke-linejoin="round" stroke-width="1.0005" style="fill:#000;isolation:auto;mix-blend-mode:normal;stroke:#2777ff"/>
    <rect x="185" y="-12.638" width="20" height="24" color="#000000" color-rendering="auto" fill="none" image-rendering="auto" solid-color="#000000" style="isolation:auto;mix-blend-mode:normal;paint-order:normal"/>
  </g>
  <g id="text-select-start-darkest" transform="matrix(1,0,0,-1,409.88,463.36)" shape-rendering="auto">
    <path d="m201.72-9.3362c-3.71-3.7184-9.725-3.7184-13.435 0s-4.2019 13.444 3.6239 16.029l12.624 4.1695-0.16117-6.7328c-0.1257-5.2512 1.0583-9.7472-2.6516-13.466z" color="#000000" color-rendering="auto" fill="url(#k)" image-rendering="auto" solid-color="#000000" stroke="#000" stroke-linejoin="round" stroke-width="1.0005" style="fill:#333;isolation:auto;mix-blend-mode:normal;stroke:#000"/>
    <rect x="185" y="-12.638" width="20" height="24" color="#000000" color-rendering="auto" fill="none" image-rendering="auto" solid-color="#000000" style="isolation:auto;mix-blend-mode:normal;paint-order:normal"/>
  </g>
  <g id="text-select-start-active-darkest" transform="matrix(1,0,0,-1,409.88,523.36)" shape-rendering="auto">
    <path d="m201.72-9.3362c-3.71-3.7184-9.725-3.7184-13.435 0s-4.2019 13.444 3.6239 16.029l12.624 4.1695-0.16117-6.7328c-0.1257-5.2512 1.0583-9.7472-2.6516-13.466z" color="#000000" color-rendering="auto" fill="#0f1014" image-rendering="auto" solid-color="#000000" stroke="#2777ff" stroke-linejoin="round" style="fill:#000;isolation:auto;mix-blend-mode:normal"/>
    <rect x="185" y="-12.638" width="20" height="24" color="#000000" color-rendering="auto" fill="none" image-rendering="auto" solid-color="#000000" style="isolation:auto;mix-blend-mode:normal;paint-order:normal"/>
  </g>
  <g id="text-select-start-hover-darkest" transform="matrix(1,0,0,-1,409.88,493.36)" shape-rendering="auto">
    <path d="m201.72-9.3362c-3.71-3.7184-9.725-3.7184-13.435 0s-4.2019 13.444 3.6239 16.029l12.624 4.1695-0.16117-6.7328c-0.1257-5.2512 1.0583-9.7472-2.6516-13.466z" color="#000000" color-rendering="auto" fill="url(#dark-hover)" image-rendering="auto" solid-color="#000000" stroke="#000" stroke-linejoin="round" stroke-width="1.0005" style="fill:#000;isolation:auto;mix-blend-mode:normal;stroke:#2777ff"/>
    <rect x="185" y="-12.638" width="20" height="24" color="#000000" color-rendering="auto" fill="none" image-rendering="auto" solid-color="#000000" style="isolation:auto;mix-blend-mode:normal;paint-order:normal"/>
  </g>
  <g id="minimize" transform="translate(-456.09,558.05)" style="fill:#fff">
    <path d="m528.7-82.32v2h8v-2z" style="fill:#fff"/>
    <rect x="528.7" y="-85.319" width="8" height="8" style="opacity:0;stroke-width:30"/>
  </g>
  <path id="maximize" d="m95.011 472.73h4.5037c0.59971 0 1.0871 0.49073 1.0904 1.0905v4.5038zm3.2062 8h-4.5216c-0.59978 0-1.0904-0.49066-1.0904-1.0904v-4.5216l5.6119 5.6119" style="fill:#fff"/>
  <path id="close" d="m113.6 472.73a1 1 0 0 0-1 1 1 1 0 0 0 0.29 0.71l2.3 2.29-2.3 2.29a1 1 0 0 0-0.29 0.71 1 1 0 0 0 1 1 1 1 0 0 0 0.71-0.29l2.29-2.3 2.28 2.29a1 1 0 0 0 0.72 0.3 1 1 0 0 0 1-1 1 1 0 0 0-0.29-0.71l-2.3-2.29 2.29-2.28a1 1 0 0 0 0.3-0.72 1 1 0 0 0-1-1 1 1 0 0 0-0.71 0.29l-2.29 2.3-2.28-2.29a1 1 0 0 0-0.01-0.01 1 1 0 0 0-0.71-0.29z" style="fill:#fff"/>
  <rect id="titlebutton" x="56.546" y="472.73" width="8" height="8" style="fill:none;stroke-width:30"/>
</svg>
