<?xml version="1.0" encoding="UTF-8" standalone="no"?>
<svg
   xmlns:dc="http://purl.org/dc/elements/1.1/"
   xmlns:cc="http://creativecommons.org/ns#"
   xmlns:rdf="http://www.w3.org/1999/02/22-rdf-syntax-ns#"
   xmlns:svg="http://www.w3.org/2000/svg"
   xmlns="http://www.w3.org/2000/svg"
   height="16"
   width="16"
   id="svg1278"
   viewBox="0 0 16 16"
   version="1.1">
  <metadata
     id="metadata1284">
    <rdf:RDF>
      <cc:Work
         rdf:about="">
        <dc:format>image/svg+xml</dc:format>
        <dc:type
           rdf:resource="http://purl.org/dc/dcmitype/StillImage" />
      </cc:Work>
    </rdf:RDF>
  </metadata>
  <defs
     id="defs1282" />
  <g
     transform="translate(-513,185.64)"
     id="titlebutton-maximize-hover-dark">
    <g
       id="g752"
       transform="translate(-781,-432.64)">
      <path
         id="path750"
         style="fill:#377cf1;stroke:#0e53ca;stroke-width:0.5"
         d="m 394,92 c -3.866,0 -7,3.134 -7,7 0,3.866 3.134,7 7,7 3.866,0 7,-3.134 7,-7 0,-3.866 -3.134,-7 -7,-7 z"
         transform="translate(908,156)" />
    </g>
    <rect
       id="rect754"
       style="fill:none"
       height="16"
       width="16"
       y="-185.64"
       x="513" />
    <path
       id="path756"
       style="opacity:0.5;fill-rule:evenodd"
       d="m 519.8,-180.64 h 3.3817 c 0.4503,0 0.81623,0.36847 0.81876,0.8188 v 3.3817 z m 2.4074,6.0069 h -3.3951 c -0.45035,0 -0.81876,-0.36842 -0.81876,-0.81875 v -3.3951 l 4.2138,4.2138" />
  </g>
</svg>
