<svg version="1.1" viewBox="0 0 507 416" xmlns="http://www.w3.org/2000/svg" xmlns:xlink="http://www.w3.org/1999/xlink">
	<defs>
		<clipPath id="ap">
			<rect transform="scale(-1,1)" x="-18" y="-280.64" width="21" height="26" fill="#f11" opacity=".558"/>
		</clipPath>
		<clipPath id="ah">
			<rect transform="scale(-1,1)" x="-52" y="-280.64" width="21" height="26" fill="#f11" opacity=".558"/>
		</clipPath>
		<clipPath id="ad">
			<rect transform="scale(-1,1)" x="-86" y="-280.64" width="21" height="26" fill="#f11" opacity=".558"/>
		</clipPath>
		<clipPath id="aj">
			<rect transform="scale(-1,1)" x="-18" y="-280.64" width="21" height="26" fill="#f11" opacity=".558"/>
		</clipPath>
		<clipPath id="af">
			<rect transform="scale(-1,1)" x="-52" y="-280.64" width="21" height="26" fill="#f11" opacity=".558"/>
		</clipPath>
		<clipPath id="ac">
			<rect transform="scale(-1,1)" x="-86" y="-280.64" width="21" height="26" fill="#f11" opacity=".558"/>
		</clipPath>
		<clipPath id="z">
			<rect x="2" y="-280.64" width="21" height="26" rx="0" ry="0" fill="#ff1616" opacity=".64"/>
		</clipPath>
		<clipPath id="x">
			<rect x="70" y="-280.64" width="21" height="26" rx="0" ry="0" fill="#ff1616" opacity=".64"/>
		</clipPath>
		<clipPath id="v">
			<rect x="104" y="-280.64" width="21" height="26" rx="0" ry="0" fill="#ff1616" opacity=".64"/>
		</clipPath>
		<clipPath id="ao">
			<rect transform="scale(-1,1)" x="-18" y="-280.64" width="21" height="26" fill="#f11" opacity=".558"/>
		</clipPath>
		<clipPath id="ag">
			<rect transform="scale(-1,1)" x="-52" y="-280.64" width="21" height="26" fill="#f11" opacity=".558"/>
		</clipPath>
		<clipPath id="aa">
			<rect transform="scale(-1,1)" x="-86" y="-280.64" width="21" height="26" fill="#f11" opacity=".558"/>
		</clipPath>
		<clipPath id="ai">
			<rect transform="scale(-1,1)" x="-18" y="-280.64" width="21" height="26" fill="#f11" opacity=".558"/>
		</clipPath>
		<clipPath id="ae">
			<rect transform="scale(-1,1)" x="-52" y="-280.64" width="21" height="26" fill="#f11" opacity=".558"/>
		</clipPath>
		<clipPath id="ab">
			<rect transform="scale(-1,1)" x="-86" y="-280.64" width="21" height="26" fill="#f11" opacity=".558"/>
		</clipPath>
		<clipPath id="y">
			<rect x="2" y="-280.64" width="21" height="26" rx="0" ry="0" fill="#ff1616" opacity=".64"/>
		</clipPath>
		<clipPath id="w">
			<rect x="70" y="-280.64" width="21" height="26" rx="0" ry="0" fill="#ff1616" opacity=".64"/>
		</clipPath>
		<clipPath id="u">
			<rect x="104" y="-280.64" width="21" height="26" rx="0" ry="0" fill="#ff1616" opacity=".64"/>
		</clipPath>
		<clipPath id="ax">
			<rect x="13" y="-267.64" width="10" height="13" fill="#66a1dc" opacity=".579"/>
		</clipPath>
		<clipPath id="at">
			<rect x="13" y="-280.64" width="10" height="13" fill="#66a1dc" opacity=".579"/>
		</clipPath>
		<clipPath id="av">
			<rect x="13" y="-267.64" width="10" height="13" fill="#66a1dc" opacity=".579"/>
		</clipPath>
		<clipPath id="as">
			<rect x="13" y="-280.64" width="10" height="13" fill="#66a1dc" opacity=".579"/>
		</clipPath>
		<clipPath id="aw">
			<rect x="13" y="-267.64" width="10" height="13" fill="#66a1dc" opacity=".579"/>
		</clipPath>
		<clipPath id="aq">
			<rect x="13" y="-280.64" width="10" height="13" fill="#66a1dc" opacity=".579"/>
		</clipPath>
		<clipPath id="au">
			<rect x="13" y="-267.64" width="10" height="13" fill="#66a1dc" opacity=".579"/>
		</clipPath>
		<clipPath id="ar">
			<rect x="13" y="-280.64" width="10" height="13" fill="#66a1dc" opacity=".579"/>
		</clipPath>
		<linearGradient id="a" x1="188.99" x2="188.99" y1="750.98" y2="758.41" gradientUnits="userSpaceOnUse">
			<stop stop-color="#ffffffgit" offset="0"/>
		</linearGradient>
		<clipPath id="i">
			<rect x="407" y="111" width="24" height="32" fill="#ad4242"/>
		</clipPath>
		<clipPath id="e">
			<rect y="1022.4" width="30" height="30" fill="#ff2121" opacity=".377"/>
		</clipPath>
		<clipPath id="c">
			<rect y="1022.4" width="30" height="30" fill="#ff2121" opacity=".377"/>
		</clipPath>
		<clipPath id="d">
			<rect y="1022.4" width="30" height="30" fill="#ff2121" opacity=".377"/>
		</clipPath>
		<clipPath id="b">
			<rect y="1022.4" width="30" height="30" fill="#ff2121" opacity=".377"/>
		</clipPath>
		<linearGradient id="f" x1="247.5" x2="247.5" y1="-27.638" y2="-12.638" gradientTransform="translate(7,283.64)" gradientUnits="userSpaceOnUse">
			<stop stop-color="#367bf0" offset="0"/>
		</linearGradient>
	</defs>
	<rect transform="scale(1,-1)" y="-416" width="507" height="416" rx="0" ry="0" color="#000000" fill="#fafafa"/>
	<g id="button" transform="translate(7,283.64)">
		<rect x="-1" y="-278.64" width="22" height="22" rx="4.5" ry="4.5" fill="#fff" fill-opacity=".94118"/>
		<rect x="-1.5" y="-279.14" width="23" height="23" rx="5" ry="5" fill="none" stroke="#dde3e9"/>
		<rect x="-3" y="-279.64" width="26" height="24" fill="none" opacity=".133"/>
	</g>
	<g id="button-hover" transform="translate(7,283.64)">
		<rect x="33" y="-278.64" width="22" height="22" rx="4.5" ry="4.5" fill="#fff"/>
		<rect x="32.5" y="-279.14" width="23" height="23" rx="5" ry="5" fill="none" stroke="#dde3e9"/>
		<rect x="31" y="-279.64" width="26" height="24" fill="none" opacity=".133"/>
	</g>
	<g id="button-insensitive" transform="translate(7,283.64)">
		<rect x="66.5" y="-279.14" width="23" height="23" rx="5" ry="5" fill="#fafafa" fill-opacity=".94118" opacity=".55" stroke="#ededed"/>
		<rect x="65" y="-279.64" width="26" height="24" fill="none" opacity=".133"/>
	</g>
	<g id="button-active" transform="translate(7,283.64)">
		<rect transform="scale(1,-1)" x="100.5" y="256.14" width="23" height="23" rx="5" ry="5" fill="#dde3e9" stroke="#dde3e9"/>
		<rect x="99" y="-279.64" width="26" height="24" fill="none" opacity=".133"/>
	</g>
	<g id="entry-bg" transform="translate(6,345.64)">
		<rect x="-2" y="-278.64" width="24" height="22" rx="4.5" ry="4.5" fill="#fff"/>
		<rect x="-2.5" y="-279.14" width="25" height="23" rx="5" ry="5" fill="none" stroke="#dde3e9"/>
	</g>
	<g id="entry-active-bg" transform="translate(6,345.64)">
		<rect x="32" y="-278.64" width="24" height="22" rx="4.5" ry="4.5" fill="#fff"/>
		<rect x="31.5" y="-279.14" width="25" height="23" rx="5" ry="5" fill="none" stroke="#367BF0"/>
	</g>
	<g id="entry-disabled-bg" transform="translate(6,345.64)">
		<rect x="66" y="-278.64" width="24" height="22" rx="4.5" ry="4.5" fill="#fbfcfc"/>
		<rect x="65.5" y="-279.14" width="25" height="23" rx="5" ry="5" fill="none" opacity=".55" stroke="#dde3e9"/>
	</g>
	<g id="entry-notebook" transform="translate(6,377.64)">
		<rect x="-3" y="-279.64" width="26" height="24" rx="0" ry="0" fill="none"/>
		<rect x="-2.5" y="-279.14" width="25" height="23" rx="5" ry="5" fill="none" stroke="#dde3e9"/>
		<rect x="-2" y="-278.64" width="24" height="22" rx="4.5" ry="4.5" fill="#fff"/>
	</g>
	<g id="entry-active-notebook" transform="translate(6,377.64)">
		<rect x="31" y="-279.64" width="26" height="24" rx="0" ry="0" fill="none"/>
		<rect x="31.5" y="-279.14" width="25" height="23" rx="5" ry="5" fill="none" stroke="#367BF0"/>
		<rect x="32" y="-278.64" width="24" height="22" rx="4.5" ry="4.5" fill="#fff"/>
	</g>
	<g id="entry-disabled-notebook" transform="translate(6,377.64)">
		<rect x="65" y="-279.64" width="26" height="24" rx="0" ry="0" fill="none"/>
		<rect x="66" y="-278.64" width="24" height="22" rx="4.5" ry="4.5" fill="#fbfcfc"/>
		<rect x="65.5" y="-279.14" width="25" height="23" rx="5" ry="5" fill="none" opacity=".55" stroke="#dde3e9"/>
	</g>
	<g id="combo-entry" transform="translate(6,452.64)" clip-path="url(#ap)">
		<rect x="-.5" y="-278.64" width="23" height="22" rx="4.5" ry="4.5" fill="#fff"/>
		<rect x="-1" y="-279.14" width="24" height="23" rx="5" ry="5" fill="none" stroke="#dde3e9"/>
		<rect x="17" y="-278.64" width="1" height="22" fill="#dde3e9" opacity=".3"/>
	</g>
	<g id="combo-entry-focus" transform="translate(-3,452.64)" clip-path="url(#ah)">
		<rect x="33.5" y="-278.64" width="23" height="22" rx="4.5" ry="4.5" fill="#fff"/>
		<rect x="33" y="-279.14" width="24" height="23" rx="5" ry="5" fill="none" stroke="#367bf0"/>
		<rect x="51" y="-278.64" width="1" height="22" fill="#367BF0"/>
	</g>
	<g id="combo-entry-insensitive" transform="translate(-12,452.64)" clip-path="url(#ad)">
		<rect x="67.5" y="-278.64" width="23" height="22" rx="4.5" ry="4.5" fill="#fbfcfc"/>
		<rect x="67" y="-279.14" width="24" height="23" rx="5" ry="5" fill="none" stroke="#dde3e9"/>
		<rect x="85" y="-278.64" width="1" height="22" fill="#dde3e9" opacity=".3"/>
	</g>
	<g id="combo-entry-notebook" transform="translate(6,482.64)" clip-path="url(#aj)">
		<rect x="-.5" y="-278.64" width="23" height="22" rx="4.5" ry="4.5" fill="#fff"/>
		<rect x="-1" y="-279.14" width="24" height="23" rx="5" ry="5" fill="none" stroke="#dde3e9"/>
		<rect x="17" y="-278.64" width="1" height="22" fill="#dde3e9" opacity=".3"/>
	</g>
	<g id="combo-entry-focus-notebook" transform="translate(-3,482.64)" clip-path="url(#af)">
		<rect x="33.5" y="-278.64" width="23" height="22" rx="4.5" ry="4.5" fill="#fff"/>
		<rect x="33" y="-279.14" width="24" height="23" rx="5" ry="5" fill="none" stroke="#367bf0"/>
		<rect x="51" y="-278.64" width="1" height="22" fill="#367BF0"/>
	</g>
	<g id="combo-entry-insensitive-notebook" transform="translate(-12,482.64)" clip-path="url(#ac)">
		<rect x="67.5" y="-278.64" width="23" height="22" rx="4.5" ry="4.5" fill="#fbfcfc"/>
		<rect x="67" y="-279.14" width="24" height="23" rx="5" ry="5" fill="none" opacity=".55" stroke="#dde3e9"/>
		<rect x="85" y="-278.64" width="1" height="22" fill="#dde3e9" opacity=".3"/>
	</g>
	<g id="combo-entry-button" transform="translate(20,423.64)">
		<g transform="translate(-18,90)" clip-path="url(#z)">
			<rect x="-2.5" y="-278.64" width="22" height="22" rx="4.5" ry="4.5" fill="#fcfdfd"/>
			<rect x="-3" y="-279.14" width="23" height="23" rx="5" ry="5" fill="none" stroke="#dde3e9"/>
			<rect x="-3" y="-279.64" width="26" height="24" fill="none" opacity=".133"/>
		</g>
	</g>
	<g id="combo-entry-button-insensitive" transform="translate(-24,423.64)">
		<g transform="translate(-18,90)" clip-path="url(#x)">
			<rect x="65.5" y="-278.64" width="22" height="22" rx="4.5" ry="4.5" fill="#fbfcfc"/>
			<rect x="65" y="-279.14" width="23" height="23" rx="5" ry="5" fill="none" opacity=".55" stroke="#dde3e9"/>
			<rect x="65" y="-279.64" width="26" height="24" fill="none" opacity=".133"/>
		</g>
	</g>
	<g id="combo-entry-button-active" transform="translate(-34,423.64)">
		<g transform="translate(-18,90)" clip-path="url(#v)">
			<rect x="99.5" y="-278.64" width="22" height="22" rx="4.5" ry="4.5" fill="#dde3e9"/>
			<rect transform="scale(1,-1)" x="99" y="256.14" width="23" height="23" rx="5" ry="5" fill="none" stroke="#dde3e9"/>
			<rect x="99" y="-279.64" width="26" height="24" fill="none" opacity=".133"/>
		</g>
		<rect x="86" y="-188.64" width="1" height="22" fill="#dde3e9"/>
	</g>
	<g id="combo-entry-rtl" transform="matrix(-1,0,0,1,153,452.64)" clip-path="url(#ao)">
		<rect transform="scale(-1,1)" x="-22.5" y="-278.64" width="23" height="22" rx="4.5" ry="4.5" fill="#fff"/>
		<rect x="-1" y="-279.14" width="24" height="23" rx="5" ry="5" fill="none" stroke="#dde3e9"/>
		<rect transform="scale(-1,1)" x="-18" y="-278.64" width="1" height="22" fill="#dde3e9" opacity=".3"/>
	</g>
	<g id="combo-entry-focus-rtl" transform="matrix(-1,0,0,1,162,452.64)" clip-path="url(#ag)">
		<rect transform="scale(-1,1)" x="-56.5" y="-278.64" width="23" height="22" rx="4.5" ry="4.5" fill="#fff"/>
		<rect x="33" y="-279.14" width="24" height="23" rx="5" ry="5" fill="none" stroke="#367bf0"/>
		<rect transform="scale(-1,1)" x="-52" y="-278.64" width="1" height="22" fill="#367BF0"/>
	</g>
	<g id="combo-entry-insensitive-rtl" transform="matrix(-1,0,0,1,171,452.64)" clip-path="url(#aa)">
		<rect x="67.5" y="-278.64" width="23" height="22" rx="4.5" ry="4.5" fill="#fbfcfc"/>
		<rect x="67" y="-279.14" width="24" height="23" rx="5" ry="5" fill="none" stroke="#dde3e9"/>
		<rect transform="scale(-1,1)" x="-86" y="-278.64" width="1" height="22" fill="#dde3e9" opacity=".3"/>
	</g>
	<g id="combo-entry-notebook-rtl" transform="matrix(-1,0,0,1,153,482.64)" clip-path="url(#ai)">
		<rect transform="scale(-1,1)" x="-22.5" y="-278.64" width="23" height="22" rx="4.5" ry="4.5" fill="#fff"/>
		<rect x="-1" y="-279.14" width="24" height="23" rx="5" ry="5" fill="none" stroke="#dde3e9"/>
		<rect transform="scale(-1,1)" x="-18" y="-278.64" width="1" height="22" fill="#dde3e9" opacity=".3"/>
	</g>
	<g id="combo-entry-focus-notebook-rtl" transform="matrix(-1,0,0,1,162,482.64)" clip-path="url(#ae)">
		<rect transform="scale(-1,1)" x="-56.5" y="-278.64" width="23" height="22" rx="4.5" ry="4.5" fill="#fff"/>
		<rect x="33" y="-279.14" width="24" height="23" rx="5" ry="5" fill="none" stroke="#367bf0"/>
		<rect transform="scale(-1,1)" x="-52" y="-278.64" width="1" height="22" fill="#367BF0"/>
	</g>
	<g id="combo-entry-insensitive-notebook-rtl" transform="matrix(-1,0,0,1,171,482.64)" clip-path="url(#ab)">
		<rect x="67.5" y="-278.64" width="23" height="22" rx="4.5" ry="4.5" fill="#fbfcfc"/>
		<rect x="67" y="-279.14" width="24" height="23" rx="5" ry="5" fill="none" opacity=".55" stroke="#dde3e9"/>
		<rect transform="scale(-1,1)" x="-86" y="-278.64" width="1" height="22" fill="#dde3e9" opacity=".3"/>
	</g>
	<g id="combo-entry-button-rtl" transform="matrix(-1,0,0,1,137,423.64)">
		<g transform="translate(-18,90)" clip-path="url(#y)">
			<rect x="-2.5" y="-278.64" width="22" height="22" rx="4.5" ry="4.5" fill="#fdfdfd"/>
			<rect x="-3" y="-279.14" width="23" height="23" rx="5" ry="5" fill="none" stroke="#dde3e9"/>
			<rect x="-3" y="-279.64" width="26" height="24" fill="none" opacity=".133"/>
		</g>
	</g>
	<g id="combo-entry-button-insensitive-rtl" transform="matrix(-1,0,0,1,181,423.64)">
		<g transform="translate(-18,90)" clip-path="url(#w)">
			<rect x="65.5" y="-278.64" width="22" height="22" rx="4.5" ry="4.5" fill="#fbfcfc"/>
			<rect x="65" y="-279.14" width="23" height="23" rx="5" ry="5" fill="none" opacity=".55" stroke="#dde3e9"/>
			<rect x="65" y="-279.64" width="26" height="24" fill="none" opacity=".133"/>
		</g>
	</g>
	<g id="combo-entry-button-active-rtl" transform="matrix(-1,0,0,1,191,423.64)">
		<g transform="translate(-18,90)" clip-path="url(#u)">
			<rect x="99.5" y="-278.64" width="22" height="22" rx="4.5" ry="4.5" fill="#dde3e9"/>
			<rect transform="scale(1,-1)" x="99" y="256.14" width="23" height="23" rx="5" ry="5" fill="none" stroke="#dde3e9"/>
			<rect x="99" y="-279.64" width="26" height="24" fill="none" opacity=".133"/>
		</g>
		<rect x="86" y="-188.64" width="1" height="22" fill="#dde3e9"/>
	</g>
	<g id="down-background" transform="translate(-10,561.64)" clip-path="url(#ax)">
		<rect x="-3" y="-280.64" width="26" height="25" fill="none"/>
		<rect x="-1" y="-278.64" width="22" height="22" rx="4.5" ry="4.5" fill="#fff"/>
		<rect x="-1.5" y="-279.14" width="23" height="23" rx="5" ry="5" fill="none" stroke="#dde3e9"/>
	</g>
	<g id="up-background" transform="translate(-10,560.64)" clip-path="url(#at)">
		<rect x="-3" y="-279.64" width="26" height="25" fill="none"/>
		<rect x="-1" y="-278.64" width="22" height="22" rx="4.5" ry="4.5" fill="#fff"/>
		<rect x="-1.5" y="-279.14" width="23" height="23" rx="5" ry="5" fill="none" stroke="#dde3e9"/>
	</g>
	<g id="down-background-disable" transform="translate(6,561.64)" clip-path="url(#av)">
		<rect x="-3" y="-280.64" width="26" height="25" fill="none"/>
		<rect x="-1" y="-278.64" width="22" height="22" rx="4.5" ry="4.5" fill="#fbfcfc"/>
		<rect x="-1.5" y="-279.14" width="23" height="23" rx="5" ry="5" fill="none" opacity=".5" stroke="#dde3e9"/>
	</g>
	<g id="up-background-disable" transform="translate(6,560.64)" clip-path="url(#as)">
		<rect x="-3" y="-279.64" width="26" height="25" fill="none"/>
		<rect x="-1" y="-278.64" width="22" height="22" rx="4.5" ry="4.5" fill="#fbfcfc"/>
		<rect x="-1.5" y="-279.14" width="23" height="23" rx="5" ry="5" fill="none" opacity=".5" stroke="#dde3e9"/>
	</g>
	<g id="down-background-rtl" transform="matrix(-1,0,0,1,75,561.64)" clip-path="url(#aw)">
		<rect x="-3" y="-280.64" width="26" height="25" fill="none"/>
		<rect x="-1" y="-278.64" width="22" height="22" rx="4.5" ry="4.5" fill="#fff"/>
		<rect x="-1.5" y="-279.14" width="23" height="23" rx="5" ry="5" fill="none" stroke="#dde3e9"/>
	</g>
	<g id="up-background-rtl" transform="matrix(-1,0,0,1,75,560.64)" clip-path="url(#aq)">
		<rect x="-3" y="-279.64" width="26" height="25" fill="none"/>
		<rect x="-1" y="-278.64" width="22" height="22" rx="4.5" ry="4.5" fill="#fff"/>
		<rect x="-1.5" y="-279.14" width="23" height="23" rx="5" ry="5" fill="none" stroke="#dde3e9"/>
	</g>
	<g id="down-background-disable-rtl" transform="matrix(-1,0,0,1,59,561.64)" clip-path="url(#au)">
		<rect x="-3" y="-280.64" width="26" height="25" fill="none"/>
		<rect x="-1" y="-278.64" width="22" height="22" rx="4.5" ry="4.5" fill="#fbfcfc"/>
		<rect x="-1.5" y="-279.14" width="23" height="23" rx="5" ry="5" fill="none" opacity=".5" stroke="#dde3e9"/>
	</g>
	<g id="up-background-disable-rtl" transform="matrix(-1,0,0,1,59,560.64)" clip-path="url(#ar)">
		<rect x="-3" y="-279.64" width="26" height="25" fill="none"/>
		<rect x="-1" y="-278.64" width="22" height="22" rx="4.5" ry="4.5" fill="#fbfcfc"/>
		<rect x="-1.5" y="-279.14" width="23" height="23" rx="5" ry="5" fill="none" opacity=".5" stroke="#dde3e9"/>
	</g>
	<g fill="#5c616c">
		<g id="arrow-down" transform="matrix(.74646 0 0 .8075 1.5373 323.79)">
			<g transform="translate(-181,-747)" fill="#5c616c">
				<path d="m183.78 751a1.0001 1.0001 0 0 0-0.5 1.7188l5 5 0.71875 0.6875 0.71875-0.6875 5-5a1.0165 1.0165 0 1 0-1.4375-1.4375l-4.2812 4.2812-4.2812-4.2812a1.0001 1.0001 0 0 0-0.9375-0.28125z" color="#000000" style="text-decoration-line:none;text-indent:0;text-transform:none"/>
				<rect transform="matrix(0,-1,-1,0,0,0)" x="-752" y="-195" width="1" height="1" rx="1.2384" ry="1.3396"/>
				<rect transform="matrix(0,-1,-1,0,0,0)" x="-752" y="-184" width="1" height="1" rx="1.2384" ry="1.3396"/>
			</g>
		</g>
		<g id="arrow-down-insens" transform="matrix(.74646 0 0 .8075 12.537 323.79)">
			<g transform="translate(-181,-747)" fill="#5c616c">
				<path transform="matrix(1.3396,0,0,1.2384,164.2,391.84)" d="m14.777 290a0.74654 0.80758 0 0 0-0.16406 0.0195 0.74654 0.80758 0 0 0-0.0918 0.0254c-0.03755-0.0137-0.07527-0.0254-0.11719-0.0254-0.20677 0-0.375 0.18062-0.375 0.4043 0 0.0377 0.01066 0.0709 0.01953 0.10547a0.74654 0.80758 0 0 0 0.19141 0.8789l3.7324 4.0371 0.53711 0.55469 0.53516-0.55469 3.7324-4.0371a0.75876 0.8208 0 0 0 0.18359-0.83984c0.01625-0.0454 0.02734-0.0928 0.02734-0.14453 0-0.22368-0.16628-0.4043-0.37305-0.4043-0.04826 0-0.09446 0.0114-0.13672 0.0293a0.75876 0.8208 0 0 0-0.77344 0.19726l-3.1953 3.457-3.1973-3.457a0.74654 0.80758 0 0 0-0.53515-0.24606z" color="#000000" fill="#5c616c" opacity=".55" style="text-decoration-line:none;text-indent:0;text-transform:none"/>
			</g>
		</g>
		<g id="arrow-down-prelight" transform="matrix(.74646 0 0 .8075 23.537 323.79)">
			<g transform="translate(-181,-747)" fill="#5c616c">
				<path transform="matrix(1.3396,0,0,1.2384,149.47,391.84)" d="m25.777 290a0.74654 0.80758 0 0 0-0.16406 0.0195 0.74654 0.80758 0 0 0-0.0918 0.0254c-0.03755-0.0137-0.07527-0.0254-0.11719-0.0254-0.20677 0-0.375 0.18062-0.375 0.4043 0 0.0377 0.01066 0.0709 0.01953 0.10547a0.74654 0.80758 0 0 0 0.19141 0.8789l3.7324 4.0371 0.53711 0.55469 0.53516-0.55469 3.7324-4.0371a0.75876 0.8208 0 0 0 0.18359-0.83984c0.01625-0.0454 0.02734-0.0928 0.02734-0.14453 0-0.22368-0.16628-0.4043-0.37305-0.4043-0.04825 0-0.09446 0.0114-0.13672 0.0293a0.75876 0.8208 0 0 0-0.77344 0.19726l-3.1953 3.457-3.1973-3.457a0.74654 0.80758 0 0 0-0.53515-0.24606z" color="#000000" fill="#8c919d" style="text-decoration-line:none;text-indent:0;text-transform:none"/>
			</g>
		</g>
		<g id="arrow-left" transform="matrix(0 .74646 -.8075 0 13.211 333.54)">
			<g transform="translate(-181,-747)" fill="#5c616c">
				<path d="m183.78 751a1.0001 1.0001 0 0 0-0.5 1.7188l5 5 0.71875 0.6875 0.71875-0.6875 5-5a1.0165 1.0165 0 1 0-1.4375-1.4375l-4.2812 4.2812-4.2812-4.2812a1.0001 1.0001 0 0 0-0.9375-0.28125z" color="#000000" style="text-decoration-line:none;text-indent:0;text-transform:none"/>
				<rect transform="matrix(0,-1,-1,0,0,0)" x="-752" y="-195" width="1" height="1" rx="1.2384" ry="1.3396"/>
				<rect transform="matrix(0,-1,-1,0,0,0)" x="-752" y="-184" width="1" height="1" rx="1.2384" ry="1.3396"/>
			</g>
		</g>
		<g id="arrow-left-insens" transform="matrix(0 .74646 -.8075 0 24.211 333.54)" opacity=".55">
			<g transform="translate(-181,-747)" fill="#5c616c">
				<path transform="matrix(0,-1.2384,1.3396,0,-216.26,776.98)" d="m20.18 298a0.80758 0.74654 0 0 0-0.58789 0.24023l-4.0371 3.7324-0.55469 0.53711 0.55469 0.53515 4.0371 3.7324a0.8208 0.75876 0 0 0 0.83984 0.1836c0.04538 0.0163 0.09279 0.0273 0.14453 0.0273 0.22368 0 0.4043-0.16627 0.4043-0.37305 0-0.0482-0.01142-0.0944-0.0293-0.13671a0.8208 0.75876 0 0 0-0.19727-0.77344l-3.457-3.1953 3.457-3.1973a0.80758 0.74654 0 0 0 0.22656-0.69922 0.80758 0.74654 0 0 0-0.02539-0.0918c0.01366-0.0376 0.02539-0.0753 0.02539-0.11718 0-0.20677-0.18062-0.375-0.4043-0.375-0.03773 0-0.07088 0.0107-0.10547 0.0195a0.80758 0.74654 0 0 0-0.29101-0.0488z" color="#000000" fill="#5c616c" style="text-decoration-line:none;text-indent:0;text-transform:none"/>
			</g>
		</g>
	</g>
	<g id="arrow-left-prelight" transform="matrix(0 .74646 -.8075 0 35.211 333.54)" fill="#367BF0">
		<g transform="translate(-181,-747)" fill="#367BF0">
			<path transform="matrix(0,-1.2384,1.3396,0,-216.26,790.6)" d="m31.18 298a0.80758 0.74654 0 0 0-0.58789 0.24023l-4.0371 3.7324-0.55469 0.53711 0.55469 0.53515 4.0371 3.7324a0.8208 0.75876 0 0 0 0.83984 0.1836c0.04538 0.0163 0.09279 0.0273 0.14453 0.0273 0.22368 0 0.4043-0.16627 0.4043-0.37305 0-0.0482-0.01142-0.0944-0.0293-0.13671a0.8208 0.75876 0 0 0-0.19727-0.77344l-3.457-3.1953 3.457-3.1973a0.80758 0.74654 0 0 0 0.22656-0.69922 0.80758 0.74654 0 0 0-0.02539-0.0918c0.01366-0.0376 0.02539-0.0753 0.02539-0.11718 0-0.20677-0.18062-0.375-0.4043-0.375-0.03773 0-0.07088 0.0107-0.10547 0.0195a0.80758 0.74654 0 0 0-0.29101-0.0488z" color="#000000" fill="#8c919d" style="text-decoration-line:none;text-indent:0;text-transform:none"/>
		</g>
	</g>
	<g id="arrow-right-prelight" transform="matrix(0 .74646 .8075 0 22.789 344.54)" fill="#367BF0">
		<g transform="translate(-181,-747)" fill="#367BF0">
			<path transform="matrix(0,1.2384,1.3396,0,-230.99,718.78)" d="m26.82 309a0.80758 0.74654 0 0 0-0.29102 0.0488c-0.03459-9e-3 -0.06774-0.0195-0.10547-0.0195-0.22368 0-0.4043 0.16823-0.4043 0.375 0 0.0419 0.01173 0.0796 0.02539 0.11718a0.80758 0.74654 0 0 0-0.02539 0.0918 0.80758 0.74654 0 0 0 0.22656 0.69922l3.457 3.1973-3.457 3.1953a0.8208 0.75876 0 0 0-0.19727 0.77344c-0.01788 0.0423-0.0293 0.0885-0.0293 0.13671 0 0.20678 0.18062 0.37305 0.4043 0.37305 0.05174 0 0.09915-0.0111 0.14453-0.0273a0.8208 0.75876 0 0 0 0.83984-0.1836l4.0371-3.7325 0.55469-0.53515-0.55469-0.53711-4.0371-3.7324a0.80758 0.74654 0 0 0-0.58789-0.24023z" color="#000000" fill="#8c919d" style="text-decoration-line:none;text-indent:0;text-transform:none"/>
		</g>
	</g>
	<g fill="#5c616c">
		<g id="arrow-right-insens" transform="matrix(0 .74646 .8075 0 11.789 344.54)" opacity=".55">
			<g transform="translate(-181,-747)" fill="#5c616c">
				<path transform="matrix(0,1.2384,1.3396,0,-230.99,732.4)" d="m15.82 309a0.80758 0.74654 0 0 0-0.29102 0.0488c-0.03459-9e-3 -0.06774-0.0195-0.10547-0.0195-0.22368 0-0.4043 0.16823-0.4043 0.375 0 0.0419 0.01173 0.0796 0.02539 0.11718a0.80758 0.74654 0 0 0-0.02539 0.0918 0.80758 0.74654 0 0 0 0.22656 0.69922l3.457 3.1973-3.457 3.1953a0.8208 0.75876 0 0 0-0.19727 0.77344c-0.01788 0.0423-0.0293 0.0885-0.0293 0.13671 0 0.20678 0.18062 0.37305 0.4043 0.37305 0.05174 0 0.09915-0.0111 0.14453-0.0273a0.8208 0.75876 0 0 0 0.83984-0.1836l4.0371-3.7325 0.55469-0.53515-0.55469-0.53711-4.0371-3.7324a0.80758 0.74654 0 0 0-0.58789-0.24023z" color="#000000" fill="#5c616c" style="text-decoration-line:none;text-indent:0;text-transform:none"/>
			</g>
		</g>
		<g id="arrow-right" transform="matrix(0 .74646 .8075 0 .7894 344.54)">
			<g transform="translate(-181,-747)" fill="#5c616c">
				<path d="m183.78 751a1.0001 1.0001 0 0 0-0.5 1.7188l5 5 0.71875 0.6875 0.71875-0.6875 5-5a1.0165 1.0165 0 1 0-1.4375-1.4375l-4.2812 4.2812-4.2812-4.2812a1.0001 1.0001 0 0 0-0.9375-0.28125z" color="#000000" style="text-decoration-line:none;text-indent:0;text-transform:none"/>
				<rect transform="matrix(0,-1,-1,0,0,0)" x="-752" y="-195" width="1" height="1" rx="1.2384" ry="1.3396"/>
				<rect transform="matrix(0,-1,-1,0,0,0)" x="-752" y="-184" width="1" height="1" rx="1.2384" ry="1.3396"/>
			</g>
		</g>
		<g id="arrow-up" transform="matrix(.74646 0 0 -.8075 1.5373 366.21)">
			<g transform="translate(-181,-747)" fill="#5c616c">
				<path d="m183.78 751a1.0001 1.0001 0 0 0-0.5 1.7188l5 5 0.71875 0.6875 0.71875-0.6875 5-5a1.0165 1.0165 0 1 0-1.4375-1.4375l-4.2812 4.2812-4.2812-4.2812a1.0001 1.0001 0 0 0-0.9375-0.28125z" color="#000000" style="text-decoration-line:none;text-indent:0;text-transform:none"/>
				<rect transform="matrix(0,-1,-1,0,0,0)" x="-752" y="-195" width="1" height="1" rx="1.2384" ry="1.3396"/>
				<rect transform="matrix(0,-1,-1,0,0,0)" x="-752" y="-184" width="1" height="1" rx="1.2384" ry="1.3396"/>
			</g>
		</g>
		<g id="arrow-up-insens" transform="matrix(.74646 0 0 -.8075 12.537 366.21)">
			<g transform="translate(-181,-747)" fill="#5c616c">
				<path transform="matrix(1.3396,0,0,-1.2384,164.2,1154.7)" d="m18.51 320-0.53711 0.55469-3.7324 4.0371a0.74654 0.80758 0 0 0-0.19141 0.8789c-0.0089 0.0346-0.01953 0.0677-0.01953 0.10547 0 0.22368 0.16823 0.4043 0.375 0.4043 0.04192 0 0.07963-0.0117 0.11719-0.0254a0.74654 0.80758 0 0 0 0.0918 0.0254 0.74654 0.80758 0 0 0 0.69922-0.22656l3.1973-3.457 3.1953 3.457a0.75876 0.8208 0 0 0 0.77344 0.19726c0.04226 0.0179 0.08846 0.0293 0.13672 0.0293 0.20677 0 0.37305-0.18062 0.37305-0.4043 0-0.0517-0.01109-0.0991-0.02734-0.14453a0.75876 0.8208 0 0 0-0.1836-0.83984l-3.7324-4.0371-0.53516-0.55469z" color="#000000" fill="#5c616c" opacity=".55" style="text-decoration-line:none;text-indent:0;text-transform:none"/>
			</g>
		</g>
	</g>
	<g id="arrow-up-prelight" transform="matrix(.74646 0 0 -.8075 23.537 366.21)" fill="#367BF0">
		<g transform="translate(-181,-747)" fill="#367BF0">
			<path transform="matrix(1.3396,0,0,-1.2384,149.47,1154.7)" d="m29.51 320-0.53711 0.55469-3.7324 4.0371a0.74654 0.80758 0 0 0-0.19141 0.8789c-0.0089 0.0346-0.01953 0.0677-0.01953 0.10547 0 0.22368 0.16823 0.4043 0.375 0.4043 0.04192 0 0.07963-0.0117 0.11719-0.0254a0.74654 0.80758 0 0 0 0.0918 0.0254 0.74654 0.80758 0 0 0 0.69922-0.22656l3.1973-3.457 3.1953 3.457a0.75876 0.8208 0 0 0 0.77344 0.19726c0.04226 0.0179 0.08846 0.0293 0.13672 0.0293 0.20677 0 0.37305-0.18062 0.37305-0.4043 0-0.0517-0.01109-0.0991-0.02734-0.14453a0.75876 0.8208 0 0 0-0.1836-0.83984l-3.7324-4.0371-0.53516-0.55469z" color="#000000" fill="#8c919d" style="text-decoration-line:none;text-indent:0;text-transform:none"/>
		</g>
	</g>
	<g id="arrow-down-small" transform="translate(40 327)">
		<rect width="9" height="6" fill="none"/>
		<g transform="matrix(.58058 0 0 .67292 -.13764 -1.6755)">
			<g transform="translate(-181,-747)" fill="#5c616c">
				<path d="m183.78 751a1.0001 1.0001 0 0 0-0.5 1.7188l5 5 0.71875 0.6875 0.71875-0.6875 5-5a1.0165 1.0165 0 1 0-1.4375-1.4375l-4.2812 4.2812-4.2812-4.2812a1.0001 1.0001 0 0 0-0.9375-0.28125z" color="#000000" style="text-decoration-line:none;text-indent:0;text-transform:none"/>
				<rect transform="matrix(0,-1,-1,0,0,0)" x="-752" y="-195" width="1" height="1" rx="1.4861" ry="1.7224"/>
				<rect transform="matrix(0,-1,-1,0,0,0)" x="-752" y="-184" width="1" height="1" rx="1.4861" ry="1.7224"/>
			</g>
		</g>
	</g>
	<g id="arrow-down-small-insens" transform="translate(50 327)">
		<rect width="9" height="6" fill="none"/>
		<g transform="matrix(.58058 0 0 .67292 -.13764 -1.6755)" fill="#5c616c">
			<g transform="translate(-181,-747)" fill="#5c616c">
				<path transform="matrix(1.7224,0,0,1.4861,95.117,318.53)" d="m51.605 291a0.58064 0.67299 0 0 0-0.12891 0.0156 0.58064 0.67299 0 0 0-0.07227 0.0215c-0.02864-0.0109-0.05797-0.0215-0.08984-0.0215-0.16082 0-0.29102 0.1515-0.29102 0.3379 0 0.0245 0.01721 0.0395 0.02148 0.0625a0.58064 0.67299 0 0 0 0.14258 0.75586l2.9023 3.3652 0.41797 0.46289 0.41602-0.46289 2.9023-3.3652a0.59014 0.684 0 0 0 0.13281-0.73047c0.0083-0.0314 0.03125-0.0532 0.03125-0.0879 0-0.1864-0.12824-0.3379-0.28906-0.3379-0.03743 0-0.07267 0.0106-0.10547 0.0254a0.59014 0.684 0 0 0-0.60352 0.16406l-2.4844 2.8809-2.4863-2.8809a0.58064 0.67299 0 0 0-0.41601-0.20505z" color="#000000" fill="#5c616c" opacity=".55" style="text-decoration-line:none;text-indent:0;text-transform:none"/>
			</g>
		</g>
	</g>
	<g id="arrow-down-small-prelight" transform="translate(60 327)">
		<rect width="9" height="6" fill="none"/>
		<g transform="matrix(.58058 0 0 .67292 -.13764 -1.6755)" fill="#5c616c">
			<g transform="translate(-181,-747)" fill="#5c616c">
				<path transform="matrix(1.7224,0,0,1.4861,77.893,318.53)" d="m61.605 291a0.58064 0.67299 0 0 0-0.12891 0.0156 0.58064 0.67299 0 0 0-0.07227 0.0215c-0.02864-0.0109-0.05797-0.0215-0.08984-0.0215-0.16082 0-0.29102 0.1515-0.29102 0.3379 0 0.0245 0.01721 0.0395 0.02148 0.0625a0.58064 0.67299 0 0 0 0.14258 0.75586l2.9023 3.3652 0.41797 0.46289 0.41602-0.46289 2.9023-3.3652a0.59014 0.684 0 0 0 0.13281-0.73047c0.0083-0.0314 0.03125-0.0532 0.03125-0.0879 0-0.1864-0.12824-0.3379-0.28906-0.3379-0.03743 0-0.07267 0.0106-0.10547 0.0254a0.59014 0.684 0 0 0-0.60352 0.16406l-2.4844 2.8809-2.4863-2.8809a0.58064 0.67299 0 0 0-0.41601-0.20505z" color="#000000" fill="#8c919d" style="text-decoration-line:none;text-indent:0;text-transform:none"/>
			</g>
		</g>
	</g>
	<g id="arrow-up-small" transform="matrix(1 0 0 -1 40 341)">
		<rect width="9" height="6" fill="none"/>
		<g transform="matrix(.58058 0 0 .67292 -.13764 -1.6755)" fill="#5c616c">
			<g transform="translate(-181,-747)" fill="#5c616c">
				<path d="m183.78 751a1.0001 1.0001 0 0 0-0.5 1.7188l5 5 0.71875 0.6875 0.71875-0.6875 5-5a1.0165 1.0165 0 1 0-1.4375-1.4375l-4.2812 4.2812-4.2812-4.2812a1.0001 1.0001 0 0 0-0.9375-0.28125z" color="#000000" style="text-decoration-line:none;text-indent:0;text-transform:none"/>
				<rect transform="matrix(0,-1,-1,0,0,0)" x="-752" y="-195" width="1" height="1" rx="1.4861" ry="1.7224"/>
				<rect transform="matrix(0,-1,-1,0,0,0)" x="-752" y="-184" width="1" height="1" rx="1.4861" ry="1.7224"/>
			</g>
		</g>
	</g>
	<g id="arrow-up-small-insens" transform="matrix(1 0 0 -1 50 341)">
		<rect width="9" height="6" fill="none"/>
		<g transform="matrix(.58058 0 0 .67292 -.13764 -1.6755)" fill="#5c616c">
			<g transform="translate(-181,-747)" fill="#5c616c">
				<path transform="matrix(1.7224,0,0,-1.4861,95.117,1201.3)" d="m54.508 298-0.41797 0.46289-2.9023 3.3652a0.58064 0.67299 0 0 0-0.14258 0.75586c-0.0043 0.023-0.02148 0.038-0.02148 0.0625-1e-6 0.1864 0.13019 0.3379 0.29102 0.3379 0.03187 0 0.0612-0.0106 0.08984-0.0215a0.58064 0.67299 0 0 0 0.07227 0.0215 0.58064 0.67299 0 0 0 0.54492-0.18946l2.4863-2.8809 2.4844 2.8809a0.59014 0.684 0 0 0 0.60352 0.16406c0.0328 0.0148 0.06804 0.0254 0.10547 0.0254 0.16082 0 0.28906-0.1515 0.28906-0.3379 0-0.0347-0.02293-0.0565-0.03125-0.0879a0.59014 0.684 0 0 0-0.13281-0.73047l-2.9023-3.3652-0.41602-0.46289z" color="#000000" fill="#5c616c" opacity=".55" style="text-decoration-line:none;text-indent:0;text-transform:none"/>
			</g>
		</g>
	</g>
	<g id="arrow-up-small-prelight" transform="matrix(1 0 0 -1 60 341)">
		<rect width="9" height="6" fill="none"/>
		<g transform="matrix(.58058 0 0 .67292 -.13764 -1.6755)" fill="#5c616c">
			<g transform="translate(-181,-747)" fill="#5c616c">
				<path transform="matrix(1.7224,0,0,-1.4861,77.893,1201.3)" d="m64.508 298-0.41797 0.46289-2.9023 3.3652a0.58064 0.67299 0 0 0-0.14258 0.75586c-0.0043 0.023-0.02148 0.038-0.02148 0.0625-1e-6 0.1864 0.13019 0.3379 0.29102 0.3379 0.03187 0 0.0612-0.0106 0.08984-0.0215a0.58064 0.67299 0 0 0 0.07227 0.0215 0.58064 0.67299 0 0 0 0.54492-0.18946l2.4863-2.8809 2.4844 2.8809a0.59014 0.684 0 0 0 0.60352 0.16406c0.03279 0.0148 0.06804 0.0254 0.10547 0.0254 0.16082 0 0.28906-0.1515 0.28906-0.3379 0-0.0347-0.02293-0.0565-0.03125-0.0879a0.59014 0.684 0 0 0-0.13281-0.73047l-2.9023-3.3652-0.41602-0.46289z" color="#000000" fill="#8c919d" style="text-decoration-line:none;text-indent:0;text-transform:none"/>
			</g>
		</g>
	</g>
	<g id="menu-arrow" transform="matrix(0 .66352 .67292 0 40.325 345.7)">
		<g transform="translate(-181,-747)" fill="#5c616c">
			<path d="m183.78 751a1.0001 1.0001 0 0 0-0.5 1.7188l5 5 0.71875 0.6875 0.71875-0.6875 5-5a1.0165 1.0165 0 1 0-1.4375-1.4375l-4.2812 4.2812-4.2812-4.2812a1.0001 1.0001 0 0 0-0.9375-0.28125z" color="#000000" style="text-decoration-line:none;text-indent:0;text-transform:none"/>
			<rect transform="matrix(0,-1,-1,0,0,0)" x="-752" y="-195" width="1" height="1" rx="1.3932" ry="1.6076"/>
			<rect transform="matrix(0,-1,-1,0,0,0)" x="-752" y="-184" width="1" height="1" rx="1.3932" ry="1.6076"/>
		</g>
	</g>
	<g id="menu-arrow-prelight" transform="matrix(0 .66352 .67292 0 -454.35 225.6)" fill="url(#a)">
		<path d="m183.78 751a1.0001 1.0001 0 0 0-0.5 1.7188l5 5 0.71875 0.6875 0.71875-0.6875 5-5a1.0165 1.0165 0 1 0-1.4375-1.4375l-4.2812 4.2812-4.2812-4.2812a1.0001 1.0001 0 0 0-0.9375-0.28125z" color="#000000" style="text-decoration-line:none;text-indent:0;text-transform:none"/>
		<rect transform="matrix(0,-1,-1,0,0,0)" x="-752" y="-195" width="1" height="1" rx="1.3932" ry="1.6076"/>
		<rect transform="matrix(0,-1,-1,0,0,0)" x="-752" y="-184" width="1" height="1" rx="1.3932" ry="1.6076"/>
	</g>
	<g id="minus" transform="translate(-198,175.64)">
		<rect x="448" y="-101.64" width="11" height="11" rx="2" ry="2" fill="#dde3e9"/>
		<rect x="449" y="-100.64" width="9" height="9" rx="1.5" ry="1.5" fill="#fff"/>
		<rect x="451" y="-96.638" width="5" height="1" rx="1" ry="1" fill="#5c616c"/>
	</g>
	<g id="plus" transform="translate(-198,175.64)">
		<rect x="434" y="-101.64" width="11" height="11" rx="2" ry="2" fill="#dde3e9"/>
		<rect x="435" y="-100.64" width="9" height="9" rx="1.5" ry="1.5" fill="#fff"/>
		<rect x="437" y="-96.638" width="5" height="1" rx="1" ry="1" fill="#5c616c"/>
		<rect transform="rotate(90)" x="-98.638" y="-440" width="5" height="1" rx="1" ry="1" fill="#5c616c"/>
	</g>
	<g id="line-h" transform="rotate(180,283.5,-36.82)">
		<rect x="275" y="-179.64" width="2" height="2" fill="none" opacity=".05"/>
		<rect x="275" y="-179.64" width="2" height="1" fill="#e6e6e6"/>
	</g>
	<g id="line-v" transform="rotate(-90 423.82 -42.819)">
		<rect x="275" y="-179.64" width="2" height="2" fill="none" opacity=".05"/>
		<rect x="275" y="-179.64" width="2" height="1" fill="#e6e6e6"/>
	</g>
	<g id="menuitem" transform="translate(0,285.64)">
		<rect x="233" y="-154.64" width="15" height="25" rx="0" ry="0" fill="#367BF0"/>
	</g>
	<g id="handle-v" transform="translate(18,283.64)">
		<rect x="210" y="-189.64" width="2" height="24" fill="none"/>
		<g fill="#dde3e9">
			<rect x="210" y="-183.64" width="2" height="2" rx="1" ry="1"/>
			<rect x="210" y="-178.64" width="2" height="2" rx="1" ry="1"/>
			<rect x="210" y="-173.64" width="2" height="2" rx="1" ry="1"/>
		</g>
	</g>
	<g id="handle-h" transform="rotate(90,86.181,-18.819)">
		<rect x="210" y="-189.64" width="2" height="24" fill="none"/>
		<g fill="#dde3e9">
			<rect x="210" y="-183.64" width="2" height="2" rx="1" ry="1"/>
			<rect x="210" y="-178.64" width="2" height="2" rx="1" ry="1"/>
			<rect x="210" y="-173.64" width="2" height="2" rx="1" ry="1"/>
		</g>
	</g>
	<g id="slider-horiz-prelight" transform="translate(-7,93)">
		<rect x="206" y="277" width="28" height="13" rx="0" ry="0" fill="none"/>
		<rect x="208" y="281" width="24" height="6" rx="3" ry="3" fill="#d3d4d8"/>
	</g>
	<rect id="notebook" x="405.5" y="6.5" width="9" height="9" rx="0" ry="0" fill="#fff" stroke="#dde3e9"/>
	<g id="tree_header" transform="translate(18,283.64)">
		<rect x="410" y="-87.638" width="10" height="28" fill="#fafafa"/>
		<rect x="419" y="-87.638" width="1" height="28" fill="#e3e3e3"/>
		<rect x="410" y="-60.638" width="10" height="1" fill="#e3e3e3"/>
	</g>
	<rect id="null" x="448" y="196" width="15" height="15" fill="none" opacity=".05"/>
	<rect id="frame" x="430.5" y="243.5" width="9" height="9" fill="#fff" stroke="#e3e3e3"/>
	<rect id="frame-gap-end" x="447" y="246" width="2" height="1" fill="#dde3e9"/>
	<rect id="frame-gap-start" x="447" y="249" width="2" height="1" fill="#dde3e9"/>
	<g id="menubar_button" transform="translate(18,281.64)">
		<rect x="245" y="-150.64" width="25" height="15" fill="none"/>
		<rect id="wsad" x="245" y="-140.64" width="25" height="3" fill="#367BF0"/>
	</g>
	<g id="entry-toolbar" transform="translate(6,409.64)">
		<rect x="-3" y="-279.64" width="26" height="24" rx="0" ry="0" fill="none"/>
		<rect x="-2.5" y="-279.14" width="25" height="23" rx="5" ry="5" fill="none" stroke="#dde3e9"/>
		<rect x="-2" y="-278.64" width="24" height="22" rx="4.5" ry="4.5" fill="#fff"/>
	</g>
	<g id="entry-active-toolbar" transform="translate(6,409.64)">
		<rect x="31" y="-279.64" width="26" height="24" rx="0" ry="0" fill="none"/>
		<rect x="31.5" y="-279.14" width="25" height="23" rx="5" ry="5" fill="none" stroke="#367BF0"/>
		<rect x="32" y="-278.64" width="24" height="22" rx="4.5" ry="4.5" fill="#fff"/>
	</g>
	<g id="entry-disabled-toolbar" transform="translate(6,409.64)">
		<rect x="65" y="-279.64" width="26" height="24" rx="0" ry="0" fill="none"/>
		<rect x="66" y="-278.64" width="24" height="22" rx="4.5" ry="4.5" fill="#fbfcfc"/>
		<rect x="65.5" y="-279.14" width="25" height="23" rx="5" ry="5" fill="none" opacity=".55" stroke="#dde3e9"/>
	</g>
	<rect id="focus-line" transform="rotate(90)" x="78.5" y="-294.5" width="4" height="4" fill="none" stroke="#dde3e9"/>
	<g id="slider-horiz-active" transform="translate(-7,80)">
		<rect x="206" y="277" width="28" height="13" rx="0" ry="0" fill="none"/>
		<rect x="208" y="281" width="24" height="6" rx="3" ry="3" fill="#367BF0"/>
	</g>
	<g id="slider-horiz" transform="translate(-7,67)">
		<rect x="206" y="277" width="28" height="13" rx="0" ry="0" fill="none"/>
		<rect x="208" y="281" width="24" height="6" rx="3" ry="3" fill="#cccdd0"/>
	</g>
	<g id="slider-vert-prelight" transform="rotate(-90,283.5,292.5)">
		<rect x="206" y="277" width="28" height="13" rx="0" ry="0" fill="none"/>
		<rect x="208" y="281" width="24" height="6" rx="3" ry="3" fill="#d3d4d8"/>
	</g>
	<g id="slider-vert-active" transform="rotate(-90,277,299)">
		<rect x="206" y="277" width="28" height="13" rx="0" ry="0" fill="none"/>
		<rect x="208" y="281" width="24" height="6" rx="3" ry="3" fill="#367BF0"/>
	</g>
	<g id="slider-vert" transform="rotate(-90,270.5,305.5)">
		<rect x="206" y="277" width="28" height="13" rx="0" ry="0" fill="none"/>
		<rect x="208" y="281" width="24" height="6" rx="3" ry="3" fill="#cccdd0"/>
	</g>
	<g id="trough-scrollbar-vert" transform="translate(7,283.64)">
		<rect id="sdcdscds" x="241" y="92.362" width="15" height="15" rx="0" ry="0" fill-opacity="0"/>
		<rect transform="rotate(-90)" x="-107.36" y="241" width="15" height=".99999" fill="#dde3e9" opacity=".55" stroke-width="0"/>
	</g>
	<g id="trough-scrollbar-horiz" transform="rotate(90,120.68,255.68)">
		<rect transform="rotate(-90)" x="-107.36" y="241" width="15" height=".99999" fill="#dde3e9" opacity=".55" stroke-width="0"/>
	</g>
	<g id="slider-vert-insens" transform="rotate(-90,290,286)">
		<rect x="206" y="277" width="28" height="13" rx="0" ry="0" fill="none"/>
		<rect x="208" y="281" width="24" height="6" rx="3" ry="3" fill="#eaebed"/>
	</g>
	<g id="slider-horiz-insens" transform="translate(-7,106)">
		<rect x="206" y="277" width="28" height="13" rx="0" ry="0" fill="none"/>
		<rect x="208" y="281" width="24" height="6" rx="3" ry="3" fill="#eaebed"/>
	</g>
	<rect id="entry-background" x="74" y="38" width="6" height="18" rx="2.7756e-17" ry="2.7756e-17" fill="#fff"/>
	<rect id="entry-background-disabled" x="87" y="38" width="6" height="18" rx="2.7756e-17" ry="2.7756e-17" fill="#fbfcfc"/>
	<g id="menu-checkbox-checked" transform="matrix(.86649 0 0 .86192 214.51 -.61858)">
		<rect x="46.067" y="5.3611" width="13.849" height="13.922" rx="1.7311" ry="1.7403" color="#000000" fill="#367bf0" stroke="#367bf0" stroke-width=".86785"/>
		<path d="m56.495 8.3994-4.6673 4.7074-2.3413-2.3537-1.5609 1.5691 3.9022 3.9228 1.5455-1.5691 4.6826-4.7074z" fill="#fff" stroke-width=".49098"/>
	</g>
	<g id="menu-radio-checked" transform="matrix(.87169 0 0 .86142 145.57 -8.6051)">
		<rect x="124.73" y="31.981" width="14" height="14" rx="6.9999" ry="7.0002" color="#000000" fill="#367bf0" stroke="#367bf0" stroke-width=".86551"/>
		<rect x="129.34" y="36.592" width="4.778" height="4.778" rx="2.389" ry="2.389" color="#000000" fill="#fff" stroke-width=".79634"/>
	</g>
	<g id="checkbox-unchecked" transform="translate(272 1.64)">
		<use transform="translate(-202.37 -1.638)" width="100%" height="100%" xlink:href="#menu-checkbox-unchecked"/>
	</g>
	<g id="checkbox-checked" transform="translate(-3.34 -3.4775)">
		<use transform="translate(71.91 3.4775)" width="100%" height="100%" xlink:href="#menu-checkbox-checked"/>
	</g>
	<g id="radio-unchecked" transform="translate(192 16.665)">
		<use transform="translate(-122.36 -16.523)" width="100%" height="100%" xlink:href="#menu-radio-unchecked"/>
	</g>
	<g id="radio-checked" transform="translate(-1.045 -3.4186)">
		<use transform="translate(69.647 3.4741)" width="100%" height="100%" xlink:href="#menu-radio-checked"/>
	</g>
	<g id="checkbox-unchecked-insensitive" transform="translate(288 1.64)">
		<use transform="translate(-217.5 -1.64)" width="100%" height="100%" xlink:href="#menu-checkbox-unchecked-insensitive"/>
	</g>
	<g id="radio-unchecked-insensitive" transform="translate(207.04 14.341)">
		<use transform="translate(-136.6 -14.242)" width="100%" height="100%" xlink:href="#menu-radio-unchecked-insensitive"/>
	</g>
	<g id="menu-checkbox-unchecked-selected" transform="translate(221 -1007)">
		<rect x=".37505" y="1040.9" width="12" height="12" rx="1.5" ry="1.5" color="#000000" fill="#367bf0" stroke="#fff" stroke-width=".75"/>
	</g>
	<g id="menu-checkbox-checked-selected" transform="matrix(.86649 0 0 .86192 220.5 29.92)">
		<rect x="39.162" y="4.733" width="14" height="14" rx="1.7311" ry="1.7403" color="#000000" fill="#fff" stroke="#fff" stroke-width=".86785"/>
		<path d="m49.666 7.8102-4.6673 4.7074-2.3413-2.3537-1.5609 1.5691 3.9022 3.9228 1.5455-1.5691 4.6826-4.7074z" fill="#367bf0" stroke-width=".49098"/>
	</g>
	<g id="menu-radio-unchecked-selected" transform="translate(121.42 41.384)">
		<rect x="99.852" y="7.5338" width="12.204" height="12.06" rx="6.1017" ry="6.0301" color="#000000" fill="#367bf0" stroke="#fff" stroke-width=".75"/>
	</g>
	<g id="menu-radio-checked-selected" transform="matrix(.86698 0 0 .86141 149.02 46.145)">
		<g transform="matrix(.47644 0 0 .48411 96.989 -57.876)">
			<rect x="51.611" y="126.56" width="29.385" height="28.919" rx="14.692" ry="14.46" color="#000000" fill="#fff" stroke="#fff" stroke-width="2.4094"/>
		</g>
		<rect x="126.35" y="8.1655" width="4.4556" height="4.4556" rx="2.2278" ry="2.2278" color="#000000" fill="#367bf0" stroke-width=".7426"/>
	</g>
	<rect id="inline-toolbar" transform="translate(11)" x="407.5" y="109.5" width="23" height="33" clip-path="url(#i)" fill="#fafafa" stroke="#e3e3e3"/>
	<g id="toolbar" transform="translate(11)" fill="#fff">
		<rect x="437" y="111" width="24" height="32" fill="#fff"/>
	</g>
	<g id="menubar" transform="translate(40)">
		<rect x="437" y="111" width="24" height="32" fill="#fff"/>
	</g>
	<g id="menu">
		<path d="m430 255v10h10v-10z" fill="#fff"/>
		<path d="m430 255v10h10v-10zm1 1h8v8h-8z" opacity=".1"/>
	</g>
	<use id="checkbox-checked-insensitive" transform="translate(16.007 -.00022962)" width="100%" height="100%" opacity=".5" xlink:href="#checkbox-checked"/>
	<use id="radio-checked-insensitive" transform="translate(15.99)" width="100%" height="100%" opacity=".5" xlink:href="#radio-checked"/>
	<g id="menu-checkbox-unchecked" transform="translate(221 -1036.9)">
		<rect x=".37505" y="1040.9" width="12" height="12" rx="1.5" ry="1.5" color="#000000" fill="#fff" stroke="#cfd6e6" stroke-width=".75"/>
	</g>
	<g id="menu-radio-unchecked" transform="translate(121.4 11.323)">
		<rect x="99.852" y="7.5338" width="12.204" height="12.06" rx="6.1017" ry="6.0301" color="#000000" fill="#fff" stroke="#cfd6e6" stroke-width=".75"/>
	</g>
	<use id="menu-checkbox-checked-insensitive" transform="translate(15.14 -.00022892)" width="100%" height="100%" opacity=".5" xlink:href="#menu-checkbox-checked"/>
	<use id="menu-radio-checked-insensitive" transform="translate(15.2 -.00038241)" width="100%" height="100%" opacity=".5" xlink:href="#menu-radio-checked"/>
	<use id="menu-checkbox-unchecked-insensitive" transform="translate(15.13 2.4414e-5)" width="100%" height="100%" opacity=".5" xlink:href="#menu-checkbox-unchecked"/>
	<use id="menu-radio-unchecked-insensitive" transform="translate(15.205 .043)" width="100%" height="100%" opacity=".5" xlink:href="#menu-radio-unchecked"/>
	<g id="tab-top-active" transform="translate(423 -1016.4)" clip-path="url(#b)">
		<rect x=".5" y="1022.9" width="29" height="34" rx="5" ry="5" fill="#fff" stroke="#dde3e9" stroke-linecap="round" stroke-linejoin="round"/>
	</g>
	<g id="tab-right-active" transform="rotate(90,752.18,758.18)" clip-path="url(#d)">
		<rect transform="scale(-1)" x="-29.5" y="-1056.9" width="29" height="34" rx="5" ry="5" fill="#fff" stroke="#dde3e9" stroke-linecap="round" stroke-linejoin="round"/>
	</g>
	<g id="tab-bottom-active" transform="matrix(1 0 0 -1 423 1092.4)" clip-path="url(#c)">
		<rect transform="scale(1,-1)" x=".5" y="-1057.4" width="29" height="34" rx="5" ry="5" fill="#fff" stroke="#dde3e9" stroke-linecap="round" stroke-linejoin="round"/>
	</g>
	<g id="tab-left-active" transform="rotate(-90,-247.18,317.18)" clip-path="url(#e)">
		<rect transform="scale(-1)" x="-29.5" y="-1056.9" width="29" height="34" rx="5" ry="5" fill="#fff" stroke="#dde3e9" stroke-linecap="round" stroke-linejoin="round"/>
	</g>
	<g transform="translate(0,285.64)">
		<rect x="233" y="-154.64" width="15" height="25" rx="0" ry="0" fill="#367bf0"/>
	</g>
	<rect id="progressbar_v" x="223" y="201" width="30" height="8" rx="4" ry="4" fill="#367bf0"/>
	<rect id="progressbar" transform="rotate(90)" x="214" y="-242" width="30" height="8" rx="4" ry="4" fill="#367bf0"/>
	<g id="trough-progressbar_v" transform="translate(18,283.64)">
		<rect x="239" y="-83.638" width="32" height="10" rx="0" ry="0" fill="none" opacity=".55"/>
		<rect transform="translate(-7,-283.64)" x="247" y="201" width="30" height="8" rx="4" ry="4" fill="#e3e3e3"/>
	</g>
	<circle id="slider" cx="235.5" cy="263.5" r="7" fill="#fff" stroke="#dde3e9"/>
	<circle id="slider-prelight" cx="254.5" cy="263.5" r="7" fill="#367bf0" stroke="url(#f)"/>
	<g id="slider-insensitive" transform="translate(11)" fill="#fff">
		<circle cx="262.5" cy="263.5" r="7" stroke="#fff"/>
		<circle cx="262.5" cy="263.5" r="7" opacity=".55" stroke="#dde3e9"/>
	</g>
	<g id="trough-horizontal" transform="translate(13)">
		<rect x="203" y="276" width="34" height="15" rx="0" ry="0" fill="none"/>
		<rect x="208" y="281" width="24" height="5" rx="2.5" ry="2.5" fill="#e3e3e3"/>
	</g>
	<g id="trough-vertical" transform="rotate(90,216.5,299.5)">
		<rect x="203" y="276" width="34" height="15" rx="0" ry="0" fill="none"/>
		<rect x="208" y="281" width="24" height="5" rx="2.5" ry="2.5" fill="#e3e3e3"/>
	</g>
	<g id="trough-progressbar" transform="rotate(90,110.68,84.681)">
		<rect x="239" y="-83.638" width="32" height="10" rx="0" ry="0" fill="none" opacity=".55"/>
		<rect transform="translate(-7,-283.64)" x="247" y="201" width="30" height="8" rx="4" ry="4" fill="#e3e3e3"/>
	</g>
	<g id="trough-horizontal-active" transform="translate(43)">
		<rect x="203" y="276" width="34" height="15" rx="0" ry="0" fill="none"/>
		<rect x="208" y="281" width="24" height="5" rx="2.5" ry="2.5" fill="#367bf0"/>
	</g>
	<g id="trough-vertical-active" transform="rotate(90,231.5,314.5)">
		<rect x="203" y="276" width="34" height="15" rx="0" ry="0" fill="none"/>
		<rect x="208" y="281" width="24" height="5" rx="2.5" ry="2.5" fill="#367bf0"/>
	</g>
	<g transform="translate(11)">
		<rect x="394" y="19" width="4" height="2" fill="none" opacity=".377"/>
	</g>
	<g transform="rotate(90 403.5 27.5)">
		<rect x="394" y="19" width="4" height="2" fill="none" opacity=".377"/>
	</g>
	<g id="notebook-gap-horiz" transform="translate(11 -2.238e-6)">
		<rect x="394" y="19" width="4" height="2" fill="none" opacity=".377"/>
		<rect x="395" y="19" width="2" height="2" fill="#fff"/>
	</g>
	<g id="notebook-gap-vert" transform="rotate(90 403.5 27.5)">
		<rect x="394" y="19" width="4" height="2" fill="none" opacity=".377"/>
		<rect x="395" y="19" width="2" height="2" fill="#fff"/>
	</g>
</svg>
