<svg xmlns="http://www.w3.org/2000/svg" width="16" height="16" version="1.1">
 <g transform="translate(-671.14288,-648.57648)">
  <g transform="matrix(0.1265625,0,0,-0.1265625,672.07092,663.09636)">
   <g transform="scale(0.1,0.1)">
    <path style="opacity:0.95;fill:#357af0" d="M 558.7722,1068.2375 A 553.08642,553.08642 0 0 1 5.6856981,515.15106 553.08642,553.08642 0 0 1 558.7722,-37.935438 553.08642,553.08642 0 0 1 1111.8586,515.15106 553.08642,553.08642 0 0 1 558.7722,1068.2375 Z"/>
    <path d="m 464.1915,752.46141 h 267.199 c 35.579,0 64.492,-29.1137 64.692,-64.6953 v -267.196 z M 654.4069,277.84061 H 386.1538 c -35.5829,0 -64.692,29.1097 -64.692,64.6913 v 268.2541 l 332.9451,-332.9454" style="fill:#ffffff;fill-rule:evenodd"/>
   </g>
  </g>
 </g>
</svg>
