<?xml version="1.0" encoding="UTF-8" standalone="no"?>
<svg
   xmlns:dc="http://purl.org/dc/elements/1.1/"
   xmlns:cc="http://creativecommons.org/ns#"
   xmlns:rdf="http://www.w3.org/1999/02/22-rdf-syntax-ns#"
   xmlns:svg="http://www.w3.org/2000/svg"
   xmlns="http://www.w3.org/2000/svg"
   width="16"
   version="1.1"
   id="svg7384"
   height="16">
  <metadata
     id="metadata90">
    <rdf:RDF>
      <cc:Work
         rdf:about="">
        <dc:format>image/svg+xml</dc:format>
        <dc:type
           rdf:resource="http://purl.org/dc/dcmitype/StillImage" />
        <dc:title>Gnome Symbolic Icon Theme</dc:title>
      </cc:Work>
    </rdf:RDF>
  </metadata>
  <title
     id="title9167">Gnome Symbolic Icon Theme</title>
  <defs
     id="defs7386" />
  <g
     transform="translate(-100.0002,-747)"
     style="display:inline"
     id="layer9" />
  <g
     transform="translate(-100.0002,-747)"
     id="layer10" />
  <g
     transform="translate(-100.0002,-747)"
     id="layer11" />
  <g
     transform="translate(-100.0002,-747)"
     id="layer13" />
  <g
     transform="translate(-100.0002,-747)"
     id="layer14" />
  <g
     transform="translate(-100.0002,-747)"
     style="display:inline"
     id="layer15" />
  <g
     transform="translate(-100.0002,-747)"
     style="display:inline"
     id="g71291" />
  <g
     transform="translate(-100.0002,-747)"
     style="display:inline"
     id="g4953" />
  <g
     transform="translate(-100.0002,-747)"
     style="display:inline"
     id="layer12">
    <path
       id="path6040"
       d="m 109.82336,751.00006 a 0.67182557,0.66502524 0 0 0 -0.10367,0.009 0.67182557,0.66502524 0 0 0 -0.39887,0.18702 l -3.35878,3.32479 -0.46184,0.47795 0.46184,0.47792 3.35878,3.32481 a 0.68281953,0.67590797 0 0 0 0.698,0.16363 c 0.0374,0.0143 0.0779,0.0233 0.1207,0.0233 0.18608,0 0.33589,-0.14829 0.33589,-0.33248 0,-0.0423 -0.009,-0.0823 -0.0236,-0.11948 a 0.68281953,0.67590797 0 0 0 -0.16531,-0.69094 l -2.876,-2.84689 2.87597,-2.84686 a 0.67182557,0.66502524 0 0 0 0.17056,-0.72082 c 0.008,-0.0292 0.0185,-0.058 0.0185,-0.0896 0,-0.18421 -0.14978,-0.33249 -0.33587,-0.33249 -0.0395,0 -0.0765,0.01 -0.11152,0.022 A 0.67182557,0.66502524 0 0 0 109.82334,751 Z"
       style="color:#000000;font-style:normal;font-variant:normal;font-weight:normal;font-stretch:normal;font-size:medium;line-height:normal;font-family:Sans;-inkscape-font-specification:Sans;text-indent:0;text-align:start;text-decoration:none;text-decoration-line:none;letter-spacing:normal;word-spacing:normal;text-transform:none;direction:ltr;block-progression:tb;writing-mode:lr-tb;baseline-shift:baseline;text-anchor:start;display:inline;overflow:visible;visibility:visible;fill:#ec0101;fill-opacity:1;stroke:none;stroke-width:2;marker:none;enable-background:accumulate" />
  </g>
</svg>
