<svg width="92" height="44" version="1.1" viewBox="0 0 92 44" xmlns="http://www.w3.org/2000/svg"><g transform="matrix(2.0041 0 0 2.0003 -.16504 -582.43)"><path d="m11.171 291.17c-6.1227 0-11.089 4.7327-11.089 10.616v0.76566c0 5.883 4.966 10.616 11.089 10.616h23.729c6.1227 0 11.089-4.7327 11.089-10.616v-0.76566c0-5.883-4.966-10.616-11.089-10.616z" color="#000000" color-rendering="auto" dominant-baseline="auto" fill="#ec0101" image-rendering="auto" shape-rendering="auto" solid-color="#000000" stroke-width="1.0041" style="font-feature-settings:normal;font-variant-alternates:normal;font-variant-caps:normal;font-variant-ligatures:normal;font-variant-numeric:normal;font-variant-position:normal;isolation:auto;mix-blend-mode:normal;paint-order:normal;shape-padding:0;text-decoration-color:#000000;text-decoration-line:none;text-decoration-style:solid;text-indent:0;text-orientation:mixed;text-transform:none;white-space:normal"/><rect x="24.303" y="291.71" width="21.143" height="20.911" rx="10.455" ry="10.455" fill="#fff" stroke="#ec0101" stroke-width="1.0853" style="paint-order:normal"/></g><path d="m22.221 0c-12.27 0-22.221 9.4671-22.221 21.235v1.5293c0 11.769 9.952 21.235 22.221 21.235h47.558c12.27 0 22.221-9.4671 22.221-21.235v-1.5293c0-11.769-9.952-21.235-22.221-21.235zm0 2.1737h47.558c11.138 0 20.031 8.506 20.031 19.061v1.5293c0 10.556-8.893 19.061-20.031 19.061h-47.558c-11.138 0-20.031-8.506-20.031-19.061v-1.5293c0-10.556 8.893-19.061 20.031-19.061z" color="#000000" color-rendering="auto" dominant-baseline="auto" image-rendering="auto" opacity=".4" shape-rendering="auto" solid-color="#000000" stroke-width="1.0041" style="font-feature-settings:normal;font-variant-alternates:normal;font-variant-caps:normal;font-variant-ligatures:normal;font-variant-numeric:normal;font-variant-position:normal;isolation:auto;mix-blend-mode:normal;paint-order:normal;shape-padding:0;text-decoration-color:#000000;text-decoration-line:none;text-decoration-style:solid;text-indent:0;text-orientation:mixed;text-transform:none;white-space:normal"/><rect x="48.541" y="1.0775" width="42.373" height="41.828" rx="20.953" ry="20.913" fill="none" opacity=".4" stroke="#000" stroke-width="2.173" style="paint-order:normal"/></svg>
