<?xml version="1.0" encoding="UTF-8" standalone="no"?>
<svg
   xmlns:dc="http://purl.org/dc/elements/1.1/"
   xmlns:cc="http://creativecommons.org/ns#"
   xmlns:rdf="http://www.w3.org/1999/02/22-rdf-syntax-ns#"
   xmlns:svg="http://www.w3.org/2000/svg"
   xmlns="http://www.w3.org/2000/svg"
   xmlns:xlink="http://www.w3.org/1999/xlink"
   id="svg197"
   viewBox="0 0 108 217.35"
   version="1.1">
  <metadata
     id="metadata201">
    <rdf:RDF>
      <cc:Work
         rdf:about="">
        <dc:format>image/svg+xml</dc:format>
        <dc:type
           rdf:resource="http://purl.org/dc/dcmitype/StillImage" />
        <dc:title></dc:title>
      </cc:Work>
    </rdf:RDF>
  </metadata>
  <defs
     id="defs14">
    <clipPath
       id="b">
      <rect
         id="rect2"
         style="paint-order:normal"
         opacity=".3"
         height="16"
         width="16"
         y="196.63"
         x="109.41" />
    </clipPath>
    <clipPath
       id="a">
      <rect
         id="rect5"
         style="paint-order:normal"
         opacity=".539"
         fill="#fff"
         height="28"
         width="5"
         y="178.85"
         x="9.5" />
    </clipPath>
    <clipPath
       id="d">
      <rect
         id="rect8"
         style="paint-order:normal"
         opacity=".539"
         fill="#fff"
         height="28"
         width="5"
         y="178.85"
         x="9.5" />
    </clipPath>
    <clipPath
       id="c">
      <rect
         id="rect11"
         style="paint-order:normal"
         opacity=".539"
         fill="#fff"
         height="28"
         width="5"
         y="178.85"
         x="9.5" />
    </clipPath>
  </defs>
  <rect
     height="16"
     width="26"
     y="115.35"
     x="10"
     id="menu-active" />
  <use
     xlink:href="#menu-active"
     height="100%"
     width="100%"
     transform="translate(31 -2.0352e-5)"
     id="menu-pressed" />
  <use
     xlink:href="#menu-active"
     height="100%"
     width="100%"
     transform="translate(62 -2.0352e-5)"
     id="menu-inactive" />
  <g
     id="title-1-active">
    <g
       id="g21"
       transform="matrix(.17857 0 0 1 9.1072 -415.01)">
      <rect
         id="rect19"
         height="28"
         width="28"
         y="557.36"
         x="5" />
    </g>
    <rect
       id="rect23"
       style="paint-order:stroke fill markers"
       fill="#fff"
       height="3"
       width="5"
       y="142.35"
       x="10" />
  </g>
  <use
     xlink:href="#title-1-active"
     height="100%"
     width="100%"
     transform="translate(7)"
     id="title-2-active" />
  <use
     xlink:href="#title-1-active"
     height="100%"
     width="100%"
     transform="translate(14)"
     id="title-3-active" />
  <use
     xlink:href="#title-1-active"
     height="100%"
     width="100%"
     transform="translate(21)"
     id="title-4-active" />
  <use
     xlink:href="#title-1-active"
     height="100%"
     width="100%"
     transform="translate(28)"
     id="title-5-active" />
  <use
     xlink:href="#title-1-active"
     height="100%"
     width="100%"
     transform="translate(35)"
     id="title-1-inactive" />
  <use
     xlink:href="#title-1-active"
     height="100%"
     width="100%"
     transform="translate(42)"
     id="title-2-inactive" />
  <use
     xlink:href="#title-1-active"
     height="100%"
     width="100%"
     transform="translate(49)"
     id="title-3-inactive" />
  <use
     xlink:href="#title-1-active"
     height="100%"
     width="100%"
     transform="translate(56)"
     id="title-4-inactive" />
  <use
     xlink:href="#title-1-active"
     height="100%"
     width="100%"
     transform="translate(63)"
     id="title-5-inactive" />
  <g
     clip-path="url(#a)"
     id="top-left-active">
    <rect
       id="rect35"
       style="paint-order:normal"
       ry="4"
       rx="4"
       height="35"
       width="12"
       y="178.85"
       x="9.5" />
    <rect
       id="rect37"
       style="paint-order:normal"
       stroke-width="3"
       stroke-linecap="square"
       stroke="#fff"
       fill="none"
       ry="2.5"
       rx="2.5"
       height="34"
       width="11"
       y="180.35"
       x="11" />
  </g>
  <rect
     id="rect40"
     style="paint-order:normal"
     fill="none"
     height="28"
     width="7"
     y="178.85"
     x="9.5" />
  <g
     transform="translate(25.281 -32.49)"
     id="left-active">
    <rect
       id="rect42"
       style="paint-order:normal"
       height="16"
       width="5"
       y="186.84"
       x="56.719" />
    <rect
       id="rect44"
       fill="#fff"
       height="16"
       width="3"
       y="186.84"
       x="-59.719"
       transform="scale(-1,1)" />
  </g>
  <use
     xlink:href="#left-active"
     height="100%"
     width="100%"
     transform="translate(5.9998)"
     id="left-inactive" />
  <use
     xlink:href="#left-active"
     height="100%"
     width="100%"
     transform="matrix(-1,0,0,1,181,0)"
     id="right-active" />
  <use
     xlink:href="#left-active"
     height="100%"
     width="100%"
     transform="matrix(-1,0,0,1,187,0)"
     id="right-inactive" />
  <use
     xlink:href="#left-active"
     height="100%"
     width="100%"
     transform="rotate(-90 96.001 179.35)"
     id="bottom-active" />
  <use
     xlink:href="#left-active"
     height="100%"
     width="100%"
     transform="rotate(-90 105 188.35)"
     id="bottom-inactive" />
  <g
     clip-path="url(#b)"
     transform="translate(-55.408 -19.279)"
     id="bottom-left-active">
    <path
       id="rect54"
       transform="translate(55.408,19.279)"
       d="M 56.001953 175.35156 C 54.893953 175.35156 54.001953 176.24356 54.001953 177.35156 L 54.001953 191.35156 C 54.001953 192.45956 54.893953 193.35156 56.001953 193.35156 L 70.001953 193.35156 C 71.109953 193.35156 72.001953 192.45956 72.001953 191.35156 L 72.001953 188.35156 L 70 188.35156 L 59 188.35156 L 59 177.35156 L 59 175.35156 L 56.001953 175.35156 z "
       style="paint-order:normal;fill:#ffffff;fill-opacity:1" />
    <path
       id="rect56"
       transform="translate(55.408,19.279)"
       d="M 58.001953 176.35156 C 57.447953 176.35156 57.001953 176.79756 57.001953 177.35156 L 57.001953 189.35156 C 57.001953 189.90556 57.447953 190.35156 58.001953 190.35156 L 70.001953 190.35156 C 70.555953 190.35156 71.001953 189.90556 71.001953 189.35156 L 71.001953 188.35156 L 70 188.35156 L 59 188.35156 L 59 177.35156 L 59 176.35156 L 58.001953 176.35156 z "
       style="paint-order:normal" />
  </g>
  <use
     xlink:href="#bottom-left-active"
     height="100%"
     width="100%"
     transform="rotate(-90 78.999 168.35)"
     id="bottom-right-active" />
  <use
     xlink:href="#bottom-left-active"
     height="100%"
     width="100%"
     transform="rotate(-90 87.999 177.35)"
     id="bottom-right-inactive" />
  <use
     xlink:href="#bottom-left-active"
     height="100%"
     width="100%"
     transform="translate(3e-7 18)"
     id="bottom-left-inactive" />
  <g
     transform="translate(-.99995 -553.36)"
     id="close-active">
    <rect
       id="rect62"
       stroke-width=".57143"
       height="16"
       width="16"
       y="563.36"
       x="11" />
    <path
       id="path64"
       stroke-width=".5"
       stroke="#bf1717"
       fill="#d41919"
       d="m19 564.36c-3.866 0-7 3.134-7 7s3.134 7 7 7 7-3.134 7-7-3.134-7-7-7z" />
  </g>
  <g
     transform="translate(-13,-553.36)"
     id="close-prelight">
    <rect
       id="rect67"
       stroke-width=".57143"
       height="16"
       width="16"
       y="563.36"
       x="44" />
    <path
       id="path69"
       stroke-width=".5"
       stroke="#bf1717"
       fill="#d41919"
       d="m52 564.36c-3.866 0-7 3.134-7 7s3.134 7 7 7 7-3.134 7-7-3.134-7-7-7z" />
    <path
       id="path71"
       style="text-decoration-line:none;text-indent:0;text-transform:none"
       opacity=".5"
       enable-background="new"
       color="#bebebe"
       d="m49.001 568.36h0.75c8e-3 -9e-5 0.0156-3.5e-4 0.0234 0 0.19122 8e-3 0.3824 0.0964 0.51563 0.23437l1.7109 1.7109 1.7344-1.7109c0.19922-0.17287 0.335-0.22912 0.51562-0.23437h0.75v0.75c0 0.21485-0.0257 0.41298-0.1875 0.5625l-1.7109 1.7109 1.6875 1.6875c0.14114 0.14113 0.21093 0.34009 0.21093 0.53907v0.75h-0.75c-0.19897-1e-5 -0.39793-0.0698-0.53906-0.21094l-1.7109-1.7109-1.7109 1.7109c-0.14113 0.14114-0.3401 0.21094-0.53907 0.21094h-0.75v-0.75c0-0.19897 0.0698-0.39794 0.21094-0.53907l1.7109-1.6875-1.7109-1.7109c-0.15805-0.14598-0.22737-0.35194-0.21094-0.5625v-0.75z" />
  </g>
  <g
     transform="translate(-25,-553.36)"
     id="close-pressed">
    <rect
       id="rect74"
       stroke-width=".57143"
       height="16"
       width="16"
       y="563.36"
       x="77" />
    <path
       id="path76"
       stroke-width=".5"
       stroke="#bf1717"
       fill="#d41919"
       d="m85 564.36c-3.866 0-7 3.134-7 7s3.134 7 7 7 7-3.134 7-7-3.134-7-7-7z" />
    <path
       id="path78"
       style="text-decoration-line:none;text-indent:0;text-transform:none"
       opacity=".5"
       enable-background="new"
       color="#bebebe"
       d="m82.001 568.36h0.75c8e-3 -9e-5 0.0156-3.5e-4 0.0234 0 0.19122 8e-3 0.3824 0.0964 0.51563 0.23437l1.7109 1.7109 1.7344-1.7109c0.19922-0.17287 0.335-0.22912 0.51562-0.23437h0.75v0.75c0 0.21485-0.0257 0.41298-0.1875 0.5625l-1.7109 1.7109 1.6875 1.6875c0.14114 0.14113 0.21093 0.34009 0.21093 0.53907v0.75h-0.75c-0.19897-1e-5 -0.39793-0.0698-0.53906-0.21094l-1.7109-1.7109-1.7109 1.7109c-0.14113 0.14114-0.3401 0.21094-0.53907 0.21094h-0.75v-0.75c0-0.19897 0.0698-0.39794 0.21094-0.53907l1.7109-1.6875-1.7109-1.7109c-0.15805-0.14598-0.22737-0.35194-0.21094-0.5625v-0.75z" />
  </g>
  <g
     transform="translate(-37,-553.36)"
     id="close-inactive">
    <rect
       id="rect81"
       stroke-width=".57143"
       height="16"
       width="16"
       y="563.36"
       x="110" />
    <path
       id="path83"
       style="font-feature-settings:normal;font-variant-alternates:normal;font-variant-caps:normal;font-variant-ligatures:normal;font-variant-numeric:normal;font-variant-position:normal;isolation:auto;mix-blend-mode:normal;shape-padding:0;text-decoration-color:#000000;text-decoration-line:none;text-decoration-style:solid;text-indent:0;text-orientation:mixed;text-transform:none;white-space:normal"
       solid-color="#000000"
       shape-rendering="auto"
       opacity=".3"
       image-rendering="auto"
       fill="#fff"
       dominant-baseline="auto"
       color-rendering="auto"
       color="#000000"
       d="m118 564.11c-4.0011 0-7.25 3.2489-7.25 7.25s3.2489 7.25 7.25 7.25 7.25-3.2489 7.25-7.25-3.2489-7.25-7.25-7.25z" />
  </g>
  <g
     transform="translate(-.99995 -565.36)"
     id="maximize-active">
    <rect
       id="rect86"
       stroke-width=".57143"
       height="16"
       width="16"
       y="596.36"
       x="11" />
    <path
       id="path88"
       stroke-width=".5"
       stroke="#316fd8"
       fill="#367bf1"
       d="m19 597.36a7 7 0 0 0-7 7 7 7 0 0 0 7 7 7 7 0 0 0 7-7 7 7 0 0 0-7-7z" />
  </g>
  <g
     transform="translate(-13,-565.36)"
     id="maximize-prelight">
    <rect
       id="rect91"
       stroke-width=".57143"
       height="16"
       width="16"
       y="596.36"
       x="44" />
    <path
       id="path93"
       stroke-width=".5"
       stroke="#316fd8"
       fill="#367bf1"
       d="m52 597.36a7 7 0 0 0-7 7 7 7 0 0 0 7 7 7 7 0 0 0 7-7 7 7 0 0 0-7-7z" />
    <path
       id="path95"
       opacity=".5"
       fill-rule="evenodd"
       d="m50.803 601.36h3.3817c0.4503 0 0.81623 0.36847 0.81876 0.8188v3.3817zm2.4074 6.0069h-3.3951c-0.45035 0-0.81876-0.36842-0.81876-0.81875v-3.3951l4.2138 4.2138" />
  </g>
  <g
     transform="translate(-25,-565.36)"
     id="maximize-pressed">
    <rect
       id="rect98"
       stroke-width=".57143"
       height="16"
       width="16"
       y="596.36"
       x="77" />
    <path
       id="path100"
       stroke-width=".5"
       stroke="#316fd8"
       fill="#367bf1"
       d="m85 597.36a7 7 0 0 0-7 7 7 7 0 0 0 7 7 7 7 0 0 0 7-7 7 7 0 0 0-7-7z" />
    <path
       id="path102"
       opacity=".5"
       fill-rule="evenodd"
       d="m83.803 601.36h3.3817c0.4503 0 0.81623 0.36847 0.81876 0.8188v3.3817zm2.4074 6.0069h-3.3951c-0.45035 0-0.81876-0.36842-0.81876-0.81875v-3.3951l4.2138 4.2138" />
  </g>
  <g
     transform="translate(-37,-565.36)"
     id="maximize-inactive">
    <rect
       id="rect105"
       stroke-width=".57143"
       height="16"
       width="16"
       y="596.36"
       x="110" />
    <path
       id="path107"
       style="font-feature-settings:normal;font-variant-alternates:normal;font-variant-caps:normal;font-variant-ligatures:normal;font-variant-numeric:normal;font-variant-position:normal;isolation:auto;mix-blend-mode:normal;shape-padding:0;text-decoration-color:#000000;text-decoration-line:none;text-decoration-style:solid;text-indent:0;text-orientation:mixed;text-transform:none;white-space:normal"
       solid-color="#000000"
       shape-rendering="auto"
       opacity=".3"
       image-rendering="auto"
       fill="#fff"
       dominant-baseline="auto"
       color-rendering="auto"
       color="#000000"
       d="m118 597.11c-4.0011 0-7.25 3.2489-7.25 7.25s3.2489 7.25 7.25 7.25 7.25-3.2489 7.25-7.25-3.2489-7.25-7.25-7.25z" />
  </g>
  <g
     transform="translate(-.99995 -577.36)"
     id="hide-active">
    <rect
       id="rect110"
       stroke-width=".57143"
       height="16"
       width="16"
       y="629.36"
       x="11" />
    <path
       id="path112"
       stroke-width=".5"
       stroke="#e47100"
       opacity=".95"
       fill="#fd7d00"
       d="m19 630.36a7 7 0 0 0-7 7 7 7 0 0 0 7 7 7 7 0 0 0 7-7 7 7 0 0 0-7-7z" />
  </g>
  <g
     transform="translate(-13,-577.36)"
     id="hide-prelight">
    <rect
       id="rect115"
       stroke-width=".57143"
       height="16"
       width="16"
       y="629.36"
       x="44" />
    <path
       id="path117"
       stroke-width=".5"
       stroke="#e47100"
       opacity=".95"
       fill="#fd7d00"
       d="m52 630.36a7 7 0 0 0-7 7 7 7 0 0 0 7 7 7 7 0 0 0 7-7 7 7 0 0 0-7-7z" />
    <path
       id="path119"
       style="text-decoration-line:none;text-indent:0;text-transform:none"
       stroke-width=".86603"
       opacity=".5"
       color="#000000"
       d="m49 636.61v1.5h6v-1.5z" />
  </g>
  <g
     transform="translate(-25,-577.36)"
     id="hide-pressed">
    <rect
       id="rect122"
       stroke-width=".57143"
       height="16"
       width="16"
       y="629.36"
       x="77" />
    <path
       id="path124"
       stroke-width=".5"
       stroke="#e47100"
       opacity=".95"
       fill="#fd7d00"
       d="m85 630.36a7 7 0 0 0-7 7 7 7 0 0 0 7 7 7 7 0 0 0 7-7 7 7 0 0 0-7-7z" />
    <path
       id="path126"
       style="text-decoration-line:none;text-indent:0;text-transform:none"
       stroke-width=".86603"
       opacity=".5"
       color="#000000"
       d="m82 636.61v1.5h6v-1.5z" />
  </g>
  <g
     transform="translate(-37,-577.36)"
     id="hide-inactive">
    <rect
       id="rect129"
       stroke-width=".57143"
       height="16"
       width="16"
       y="629.36"
       x="110" />
    <path
       id="path131"
       style="font-feature-settings:normal;font-variant-alternates:normal;font-variant-caps:normal;font-variant-ligatures:normal;font-variant-numeric:normal;font-variant-position:normal;isolation:auto;mix-blend-mode:normal;shape-padding:0;text-decoration-color:#000000;text-decoration-line:none;text-decoration-style:solid;text-indent:0;text-orientation:mixed;text-transform:none;white-space:normal"
       solid-color="#000000"
       shape-rendering="auto"
       opacity=".3"
       image-rendering="auto"
       fill="#fff"
       dominant-baseline="auto"
       color-rendering="auto"
       color="#000000"
       d="m118 630.11c-4.0011 0-7.25 3.2489-7.25 7.25s3.2489 7.25 7.25 7.25 7.25-3.2489 7.25-7.25-3.2489-7.25-7.25-7.25z" />
  </g>
  <g
     transform="translate(-.99995 -523.36)"
     id="stick-active">
    <rect
       id="rect134"
       stroke-width=".57143"
       height="16"
       width="16"
       y="596.36"
       x="11" />
    <path
       id="path136"
       stroke-width=".5"
       stroke="#17917a"
       fill="#19a187"
       d="m19 597.36a7 7 0 0 0-7 7 7 7 0 0 0 7 7 7 7 0 0 0 7-7 7 7 0 0 0-7-7z" />
  </g>
  <g
     transform="translate(-13,-523.36)"
     id="stick-prelight">
    <rect
       id="rect139"
       stroke-width=".57143"
       height="16"
       width="16"
       y="596.36"
       x="44" />
    <path
       id="path141"
       stroke-width=".5"
       stroke="#17917a"
       fill="#19a187"
       d="m52 597.36a7 7 0 0 0-7 7 7 7 0 0 0 7 7 7 7 0 0 0 7-7 7 7 0 0 0-7-7z" />
    <circle
       id="circle143"
       stroke-width=".5"
       opacity=".5"
       r="1.5"
       cy="604.36"
       cx="52" />
  </g>
  <g
     transform="translate(-25,-523.36)"
     id="stick-pressed">
    <rect
       id="rect146"
       stroke-width=".57143"
       height="16"
       width="16"
       y="596.36"
       x="77" />
    <path
       id="path148"
       stroke-width=".5"
       stroke="#17917a"
       fill="#19a187"
       d="m85 597.36a7 7 0 0 0-7 7 7 7 0 0 0 7 7 7 7 0 0 0 7-7 7 7 0 0 0-7-7z" />
    <circle
       id="circle150"
       stroke-width=".5"
       opacity=".5"
       r="1.5"
       cy="604.36"
       cx="85" />
  </g>
  <g
     transform="translate(-37,-523.36)"
     id="stick-inactive">
    <rect
       id="rect153"
       stroke-width=".57143"
       height="16"
       width="16"
       y="596.36"
       x="110" />
    <path
       id="path155"
       style="font-feature-settings:normal;font-variant-alternates:normal;font-variant-caps:normal;font-variant-ligatures:normal;font-variant-numeric:normal;font-variant-position:normal;isolation:auto;mix-blend-mode:normal;shape-padding:0;text-decoration-color:#000000;text-decoration-line:none;text-decoration-style:solid;text-indent:0;text-orientation:mixed;text-transform:none;white-space:normal"
       solid-color="#000000"
       shape-rendering="auto"
       opacity=".3"
       image-rendering="auto"
       fill="#fff"
       dominant-baseline="auto"
       color-rendering="auto"
       color="#000000"
       d="m118 597.11c-4.0011 0-7.25 3.2489-7.25 7.25s3.2489 7.25 7.25 7.25 7.25-3.2489 7.25-7.25-3.2489-7.25-7.25-7.25z" />
  </g>
  <g
     transform="translate(-.99995 -535.36)"
     id="shade-active">
    <rect
       id="rect158"
       stroke-width=".57143"
       height="16"
       width="16"
       y="629.36"
       x="11" />
    <path
       id="path160"
       stroke-width=".5"
       stroke="#20a8af"
       opacity=".95"
       fill="#23bac2"
       d="m19 630.36a7 7 0 0 0-7 7 7 7 0 0 0 7 7 7 7 0 0 0 7-7 7 7 0 0 0-7-7z" />
  </g>
  <g
     transform="translate(-13,-535.36)"
     id="shade-prelight">
    <rect
       id="rect163"
       stroke-width=".57143"
       height="16"
       width="16"
       y="629.36"
       x="44" />
    <path
       id="path165"
       stroke-width=".5"
       stroke="#20a8af"
       opacity=".95"
       fill="#23bac2"
       d="m52 630.36a7 7 0 0 0-7 7 7 7 0 0 0 7 7 7 7 0 0 0 7-7 7 7 0 0 0-7-7z" />
    <path
       id="path167"
       stroke-width="1.0068"
       opacity=".5"
       fill-rule="evenodd"
       d="m55 638.69-2.4171-2.4171c-0.32062-0.32063-0.84522-0.32061-1.1658 0l-2.4171 2.4171h6" />
  </g>
  <g
     transform="translate(-25,-535.36)"
     id="shade-pressed">
    <rect
       id="rect170"
       stroke-width=".57143"
       height="16"
       width="16"
       y="629.36"
       x="77" />
    <path
       id="path172"
       stroke-width=".5"
       stroke="#20a8af"
       opacity=".95"
       fill="#23bac2"
       d="m85 630.36a7 7 0 0 0-7 7 7 7 0 0 0 7 7 7 7 0 0 0 7-7 7 7 0 0 0-7-7z" />
    <path
       id="path174"
       stroke-width="1.0068"
       opacity=".5"
       fill-rule="evenodd"
       d="m88 638.69-2.4171-2.4171c-0.32062-0.32063-0.84522-0.32061-1.1658 0l-2.4171 2.4171h6" />
  </g>
  <g
     transform="translate(-37,-535.36)"
     id="shade-inactive">
    <rect
       id="rect177"
       stroke-width=".57143"
       height="16"
       width="16"
       y="629.36"
       x="110" />
    <path
       id="path179"
       style="font-feature-settings:normal;font-variant-alternates:normal;font-variant-caps:normal;font-variant-ligatures:normal;font-variant-numeric:normal;font-variant-position:normal;isolation:auto;mix-blend-mode:normal;shape-padding:0;text-decoration-color:#000000;text-decoration-line:none;text-decoration-style:solid;text-indent:0;text-orientation:mixed;text-transform:none;white-space:normal"
       solid-color="#000000"
       shape-rendering="auto"
       opacity=".3"
       image-rendering="auto"
       fill="#fff"
       dominant-baseline="auto"
       color-rendering="auto"
       color="#000000"
       d="m118 630.11c-4.0011 0-7.25 3.2489-7.25 7.25s3.2489 7.25 7.25 7.25 7.25-3.2489 7.25-7.25-3.2489-7.25-7.25-7.25z" />
  </g>
  <g
     clip-path="url(#a)"
     transform="translate(8)"
     id="top-left-inactive">
    <rect
       id="rect182"
       style="paint-order:normal"
       ry="4"
       rx="4"
       height="35"
       width="12"
       y="178.85"
       x="9.5" />
    <rect
       id="rect184"
       style="paint-order:normal"
       stroke-width="3"
       stroke-linecap="square"
       stroke="#fff"
       fill="none"
       ry="2.5"
       rx="2.5"
       height="34"
       width="11"
       y="180.35"
       x="11" />
  </g>
  <g
     clip-path="url(#d)"
     transform="matrix(-1,0,0,1,41,0)"
     id="top-right-active">
    <rect
       id="rect187"
       style="paint-order:normal"
       ry="4"
       rx="4"
       height="35"
       width="12"
       y="178.85"
       x="9.5" />
    <rect
       id="rect189"
       style="paint-order:normal"
       stroke-width="3"
       stroke-linecap="square"
       stroke="#fff"
       fill="none"
       ry="2.5"
       rx="2.5"
       height="34"
       width="11"
       y="180.35"
       x="11" />
  </g>
  <g
     clip-path="url(#c)"
     transform="matrix(-1,0,0,1,49,0)"
     id="top-right-inactive">
    <rect
       id="rect192"
       style="paint-order:normal"
       ry="4"
       rx="4"
       height="35"
       width="12"
       y="178.85"
       x="9.5" />
    <rect
       id="rect194"
       style="paint-order:normal"
       stroke-width="3"
       stroke-linecap="square"
       stroke="#fff"
       fill="none"
       ry="2.5"
       rx="2.5"
       height="34"
       width="11"
       y="180.35"
       x="11" />
  </g>
</svg>
