<svg width="91.694" height="44.682" version="1.1" viewBox="0 0 91.694 44.682" xmlns="http://www.w3.org/2000/svg"><path d="m22.07 0.341c-12.27 0-22.223 9.4669-22.223 21.234v1.5316c0 11.768 9.9523 21.234 22.223 21.234h47.555c12.27 0 22.223-9.4669 22.223-21.234v-1.5316c0-11.768-9.9524-21.234-22.223-21.234z" color="#000000" color-rendering="auto" dominant-baseline="auto" fill="#2777ff" image-rendering="auto" shape-rendering="auto" solid-color="#000000" stroke-width="2.0105" style="font-feature-settings:normal;font-variant-alternates:normal;font-variant-caps:normal;font-variant-ligatures:normal;font-variant-numeric:normal;font-variant-position:normal;isolation:auto;mix-blend-mode:normal;paint-order:normal;shape-padding:0;text-decoration-color:#000000;text-decoration-line:none;text-decoration-style:solid;text-indent:0;text-orientation:mixed;text-transform:none;white-space:normal"/><path d="m22.068 0.341c-12.27 0-22.221 9.4671-22.221 21.235v1.5293c0 11.769 9.952 21.235 22.221 21.235h47.558c12.27 0 22.221-9.4671 22.221-21.235v-1.5293c0-11.769-9.952-21.235-22.221-21.235zm0 2.1737h47.558c11.138 0 20.031 8.506 20.031 19.061v1.5293c0 10.556-8.893 19.061-20.031 19.061h-47.558c-11.138 0-20.031-8.506-20.031-19.061v-1.5293c0-10.556 8.893-19.061 20.031-19.061z" color="#000000" color-rendering="auto" dominant-baseline="auto" image-rendering="auto" opacity=".4" shape-rendering="auto" solid-color="#000000" stroke-width="1.0041" style="font-feature-settings:normal;font-variant-alternates:normal;font-variant-caps:normal;font-variant-ligatures:normal;font-variant-numeric:normal;font-variant-position:normal;isolation:auto;mix-blend-mode:normal;paint-order:normal;shape-padding:0;text-decoration-color:#000000;text-decoration-line:none;text-decoration-style:solid;text-indent:0;text-orientation:mixed;text-transform:none;white-space:normal"/><rect x="48.37" y="1.1197" width="42.231" height="42.479" rx="20.883" ry="21.238" fill="#242730" stroke="#191b21" stroke-width="2.1862" style="paint-order:normal"/></svg>
