<svg width="91.696" height="44.682" version="1.1" viewBox="0 0 91.696 44.682" xmlns="http://www.w3.org/2000/svg"><path d="m22.265 0.34161c-12.17 0-22.041 9.4664-22.041 21.234v1.5315c0 11.767 9.8709 21.234 22.041 21.234h47.167c12.17 0 22.041-9.4664 22.041-21.234v-1.5315c0-11.767-9.8709-21.234-22.041-21.234z" color="#000000" color-rendering="auto" dominant-baseline="auto" fill="#2777ff" image-rendering="auto" shape-rendering="auto" solid-color="#000000" style="font-feature-settings:normal;font-variant-alternates:normal;font-variant-caps:normal;font-variant-ligatures:normal;font-variant-numeric:normal;font-variant-position:normal;isolation:auto;mix-blend-mode:normal;paint-order:normal;shape-padding:0;text-decoration-color:#000000;text-decoration-line:none;text-decoration-style:solid;text-indent:0;text-orientation:mixed;text-transform:none;white-space:normal"/><path d="m22.264 0.34002c-12.169 0-22.039 9.4674-22.039 21.236v1.5293c0 11.769 9.8704 21.236 22.039 21.236h47.168c12.169 0 22.039-9.4674 22.039-21.236v-1.5293c0-11.769-9.8704-21.236-22.039-21.236zm0 2.1738h47.168c11.047 0 19.867 8.5063 19.867 19.062v1.5293c0 10.556-8.8201 19.062-19.867 19.062h-47.168c-11.047 0-19.867-8.5063-19.867-19.062v-1.5293c0-10.556 8.8201-19.062 19.867-19.062z" color="#000000" color-rendering="auto" dominant-baseline="auto" image-rendering="auto" opacity=".4" shape-rendering="auto" solid-color="#000000" style="font-feature-settings:normal;font-variant-alternates:normal;font-variant-caps:normal;font-variant-ligatures:normal;font-variant-numeric:normal;font-variant-position:normal;isolation:auto;mix-blend-mode:normal;paint-order:normal;shape-padding:0;text-decoration-color:#000000;text-decoration-line:none;text-decoration-style:solid;text-indent:0;text-orientation:mixed;text-transform:none;white-space:normal"/><g transform="matrix(-1 0 0 1 91.863 0)"><path d="m22.109 3.3136h0.46724c10.475 0 18.835 8.4474 18.835 19.032v0.0041c0 10.585-8.3597 19.032-18.835 19.032h-0.46724c-10.475 0-18.835-8.4475-18.835-19.032v-0.0041c0-10.585 8.3597-19.032 18.835-19.032z" color="#000000" color-rendering="auto" dominant-baseline="auto" image-rendering="auto" shape-rendering="auto" solid-color="#000000" style="font-feature-settings:normal;font-variant-alternates:normal;font-variant-caps:normal;font-variant-ligatures:normal;font-variant-numeric:normal;font-variant-position:normal;isolation:auto;mix-blend-mode:normal;paint-order:normal;shape-padding:0;text-decoration-color:#000000;text-decoration-line:none;text-decoration-style:solid;text-indent:0;text-orientation:mixed;text-transform:none;white-space:normal"/></g></svg>
