<svg xmlns="http://www.w3.org/2000/svg" xmlns:xlink="http://www.w3.org/1999/xlink" width="16" height="16" version="1.1">
 <defs>
  <linearGradient id="linearGradient1909" x1="165" x2="179" y1="99" y2="99" gradientTransform="translate(-164,-91)" gradientUnits="userSpaceOnUse" xlink:href="#linearGradient1890"/>
  <linearGradient id="linearGradient1890">
   <stop style="stop-color:#ee7276" offset="0"/>
   <stop style="stop-color:#d31919" offset="1"/>
  </linearGradient>
 </defs>
 <g>
  <path d="M 8,1 A 7,7 0 0 0 1,8 7,7 0 0 0 8,15 7,7 0 0 0 15,8 7,7 0 0 0 8,1 Z M 5,4.921875 h 0.75 c 0.008,-9e-5 0.0156,-3.45e-4 0.0234,0 0.19121,0.0084 0.3824,0.09643 0.51562,0.234375 L 8,6.867188 9.73438,5.15625 C 9.93359,4.983375 10.06938,4.927125 10.25,4.921875 H 11 v 0.75 c 0,0.214853 -0.0258,0.412987 -0.1875,0.5625 L 9.10156,7.945312 10.78906,9.63281 C 10.9302,9.77394 10.99999,9.9729 11,10.17188 v 0.75 h -0.75 c -0.19898,-10e-6 -0.39794,-0.0698 -0.53906,-0.21094 L 8,9 6.28906,10.71094 C 6.14794,10.85208 5.94897,10.92188 5.75,10.92188 H 5 v -0.75 C 5,9.97291 5.0698,9.77394 5.21094,9.63281 L 6.92188,7.945312 5.21094,6.234375 C 5.05288,6.088403 4.98357,5.882438 5,5.671875 Z" style="fill:url(#linearGradient1909)"/>
  <path style="fill:#2f343f" d="m 5.000035,4.92188 h 0.75 c 0.008,-9e-5 0.0156,-3.5e-4 0.0234,0 0.19122,0.008 0.3824,0.0964 0.51563,0.23437 l 1.71093,1.71094 1.73438,-1.71094 c 0.19922,-0.17287 0.335,-0.22912 0.51562,-0.23437 h 0.75 v 0.75 c 0,0.21485 -0.0257,0.41298 -0.1875,0.5625 l -1.71093,1.71093 1.6875,1.6875 c 0.14114,0.14113 0.21093,0.34009 0.21093,0.53907 v 0.75 h -0.75 c -0.19897,-10e-6 -0.39793,-0.0698 -0.53906,-0.21094 L 7.999995,9 6.289065,10.71094 c -0.14113,0.14114 -0.3401,0.21094 -0.53907,0.21094 h -0.75 v -0.75 c 0,-0.19897 0.0698,-0.39794 0.21094,-0.53907 L 6.921875,7.94531 5.210935,6.23438 C 5.052885,6.0884 4.983565,5.88244 4.999995,5.67188 v -0.75 z"/>
 </g>
</svg>
